<svg xmlns="http://www.w3.org/2000/svg" xmlns:xlink="http://www.w3.org/1999/xlink" width="285.656" height="108" viewBox="0 0 285.656 108">
  <defs>
    <clipPath id="clip-path">
      <rect id="長方形_73" data-name="長方形 73" width="147" height="108" transform="translate(77 7994)" fill="#fff"/>
    </clipPath>
  </defs>
  <g id="logo" transform="translate(-100 -8001)">
    <g id="logo-2" data-name="logo" transform="translate(23 7)" clip-path="url(#clip-path)">
      <path id="パス_20" data-name="パス 20" d="M9.86-70.04v57.97c0,18.36,31.79,18.53,37.23-6.8l-1.19-.17C40.8,1.02,18.36,4.25,18.36-12.07V-83.81H45.82V-85H18.36v-21.93h-1.7C16.66-88.74,6.97-85,.17-85v1.19H9.86Zm50.15,0v57.97c0,18.36,31.79,18.53,37.23-6.8l-1.19-.17C90.95,1.02,68.51,4.25,68.51-12.07V-83.81H95.97V-85H68.51v-21.93h-1.7C66.81-88.74,57.12-85,50.32-85v1.19h9.69Zm50.15,0v57.97c0,18.36,31.79,18.53,37.23-6.8l-1.19-.17c-5.1,20.06-27.54,23.29-27.54,6.97V-83.81h27.46V-85H118.66v-21.93h-1.7c0,18.19-9.69,21.93-16.49,21.93v1.19h9.69Z" transform="translate(76.5 8101)" fill="#eee" stroke="#0f0f0f" stroke-width="1"/>
    </g>
    <path id="パス_21" data-name="パス 21" d="M5.872.208A4.936,4.936,0,0,1,3.2-.512,4.881,4.881,0,0,1,1.4-2.544,6.859,6.859,0,0,1,.752-5.616,6.808,6.808,0,0,1,1.4-8.68a4.947,4.947,0,0,1,1.8-2.032,4.895,4.895,0,0,1,2.672-.728,4.905,4.905,0,0,1,2.376.568A4.811,4.811,0,0,1,9.984-9.264l-.864.512a3.8,3.8,0,0,0-1.376-1.264,3.885,3.885,0,0,0-1.872-.448,3.91,3.91,0,0,0-2.128.584A3.961,3.961,0,0,0,2.288-8.208,5.884,5.884,0,0,0,1.76-5.616a5.936,5.936,0,0,0,.528,2.6,3.952,3.952,0,0,0,1.456,1.68,3.91,3.91,0,0,0,2.128.584A3.885,3.885,0,0,0,7.744-1.2,3.8,3.8,0,0,0,9.12-2.464l.864.528A4.912,4.912,0,0,1,8.248-.36,4.905,4.905,0,0,1,5.872.208ZM12.72,0V-7.664h.928L13.7-6.336a2.567,2.567,0,0,1,1.016-1.1,2.91,2.91,0,0,1,1.544-.424,4.43,4.43,0,0,1,.456.024,2.159,2.159,0,0,1,.392.072v.944q-.144-.032-.408-.064a4.451,4.451,0,0,0-.536-.032,2.488,2.488,0,0,0-1.232.312,2.424,2.424,0,0,0-.888.832,2.158,2.158,0,0,0-.328,1.176V0Zm9.952.176a3.5,3.5,0,0,1-1.848-.488A3.338,3.338,0,0,1,19.56-1.7,4.689,4.689,0,0,1,19.1-3.84a4.563,4.563,0,0,1,.456-2.1,3.48,3.48,0,0,1,1.256-1.4,3.349,3.349,0,0,1,1.824-.5,2.962,2.962,0,0,1,1.768.52A3.373,3.373,0,0,1,25.52-5.976,4.061,4.061,0,0,1,25.9-4.24v.32H20.08a3.479,3.479,0,0,0,.68,2.328A2.341,2.341,0,0,0,22.688-.7a2.436,2.436,0,0,0,1.5-.456,3.231,3.231,0,0,0,.992-1.352l.8.464A3.437,3.437,0,0,1,22.672.176ZM20.144-4.752h4.8a2.854,2.854,0,0,0-.392-1.136,2.44,2.44,0,0,0-.8-.816,2.059,2.059,0,0,0-1.112-.3,2.356,2.356,0,0,0-1.64.6A2.836,2.836,0,0,0,20.144-4.752ZM30.608.144a2.854,2.854,0,0,1-1.816-.512A1.81,1.81,0,0,1,28.1-1.9a1.943,1.943,0,0,1,.52-1.344,3.558,3.558,0,0,1,1.328-.9,4.405,4.405,0,0,1,1.672-.328,2.881,2.881,0,0,1,1.872.56V-5.232a1.679,1.679,0,0,0-.448-1.4A2.473,2.473,0,0,0,31.6-6.96a5.063,5.063,0,0,0-1.424.232,5.105,5.105,0,0,0-1.328.584l-.464-.768A6.114,6.114,0,0,1,29.9-7.584a5.813,5.813,0,0,1,1.7-.272,3.37,3.37,0,0,1,2.144.56,2.552,2.552,0,0,1,.688,2.064v4.24q0,.3.168.344a2.313,2.313,0,0,0,.744-.072v.688a2.635,2.635,0,0,1-.432.12A2.545,2.545,0,0,1,34.4.144q-.544,0-.7-.224A1.725,1.725,0,0,1,33.5-.928a2.909,2.909,0,0,1-1.312.8A5.679,5.679,0,0,1,30.608.144Zm.048-.88a4.766,4.766,0,0,0,1.432-.24,2.487,2.487,0,0,0,1.056-.648,1.353,1.353,0,0,0,.36-1.032A.9.9,0,0,0,32.96-3.4a2.737,2.737,0,0,0-1.28-.232,3.628,3.628,0,0,0-1.264.224,2.566,2.566,0,0,0-.984.616,1.268,1.268,0,0,0-.376.9.955.955,0,0,0,.448.872A2.143,2.143,0,0,0,30.656-.736Zm9.776.912A2.335,2.335,0,0,1,38.9-.256a1.951,1.951,0,0,1-.512-1.552v-4.96H36.72v-.9h1.664V-10.48h.96v2.816H41.68v.9H39.344v4.8a1.269,1.269,0,0,0,.3.984,1.415,1.415,0,0,0,.944.264,2.266,2.266,0,0,0,.576-.08,3.149,3.149,0,0,0,.512-.176v.944A3.752,3.752,0,0,1,41.1.112,3.76,3.76,0,0,1,40.432.176Zm6.976,0A3.5,3.5,0,0,1,45.56-.312,3.338,3.338,0,0,1,44.3-1.7,4.689,4.689,0,0,1,43.84-3.84a4.563,4.563,0,0,1,.456-2.1,3.48,3.48,0,0,1,1.256-1.4,3.349,3.349,0,0,1,1.824-.5,2.962,2.962,0,0,1,1.768.52,3.373,3.373,0,0,1,1.112,1.344A4.061,4.061,0,0,1,50.64-4.24v.32H44.816a3.479,3.479,0,0,0,.68,2.328A2.341,2.341,0,0,0,47.424-.7a2.436,2.436,0,0,0,1.5-.456,3.231,3.231,0,0,0,.992-1.352l.8.464A3.437,3.437,0,0,1,47.408.176ZM44.88-4.752h4.8a2.854,2.854,0,0,0-.392-1.136,2.44,2.44,0,0,0-.8-.816,2.059,2.059,0,0,0-1.112-.3,2.356,2.356,0,0,0-1.64.6A2.836,2.836,0,0,0,44.88-4.752ZM56.576.176a3.349,3.349,0,0,1-1.824-.5,3.524,3.524,0,0,1-1.264-1.408,4.547,4.547,0,0,1-.464-2.1,4.5,4.5,0,0,1,.464-2.1,3.537,3.537,0,0,1,1.264-1.4,3.349,3.349,0,0,1,1.824-.5,2.9,2.9,0,0,1,1.536.408A3.023,3.023,0,0,1,59.184-6.32v-5.232h.976V0h-.9l-.016-1.408a3.162,3.162,0,0,1-1.1,1.16A2.927,2.927,0,0,1,56.576.176Zm.032-.912a2.377,2.377,0,0,0,1.336-.384,2.62,2.62,0,0,0,.92-1.08A3.735,3.735,0,0,0,59.2-3.84a3.683,3.683,0,0,0-.336-1.632,2.631,2.631,0,0,0-.92-1.072,2.377,2.377,0,0,0-1.336-.384,2.415,2.415,0,0,0-1.344.384,2.609,2.609,0,0,0-.928,1.072A3.683,3.683,0,0,0,54-3.84a3.735,3.735,0,0,0,.336,1.64,2.6,2.6,0,0,0,.928,1.08A2.415,2.415,0,0,0,56.608-.736ZM4.784,28.176a2.927,2.927,0,0,1-1.568-.424,3.162,3.162,0,0,1-1.1-1.16L2.08,28h-.9V16.448H2.16V21.68a3.151,3.151,0,0,1,1.088-1.112,2.9,2.9,0,0,1,1.536-.408,3.349,3.349,0,0,1,1.824.5,3.48,3.48,0,0,1,1.256,1.4,4.563,4.563,0,0,1,.456,2.1,4.613,4.613,0,0,1-.456,2.1,3.468,3.468,0,0,1-1.256,1.408A3.349,3.349,0,0,1,4.784,28.176Zm-.016-.912A2.377,2.377,0,0,0,6.1,26.88a2.62,2.62,0,0,0,.92-1.08,3.735,3.735,0,0,0,.336-1.64,3.683,3.683,0,0,0-.336-1.632,2.631,2.631,0,0,0-.92-1.072,2.377,2.377,0,0,0-1.336-.384,2.379,2.379,0,0,0-1.872.84A3.29,3.29,0,0,0,2.16,24.16,3.321,3.321,0,0,0,2.9,26.416,2.37,2.37,0,0,0,4.768,27.264Zm6.368,4.192a4.357,4.357,0,0,1-.584-.04,3.725,3.725,0,0,1-.52-.1V30.4a4.081,4.081,0,0,0,1.04.144,1.267,1.267,0,0,0,.88-.264,2.488,2.488,0,0,0,.544-.92L13.008,28,10,20.336h1.008l2.448,6.448,2.352-6.448h1.024L13.36,29.664a3.139,3.139,0,0,1-.848,1.36A2.064,2.064,0,0,1,11.136,31.456ZM22.784,28V16.8h.976l3.856,5.776L31.424,16.8h1.008V28H31.424V18.512L27.888,23.9h-.544l-3.568-5.392V28Zm15.712.176a3.5,3.5,0,0,1-1.848-.488A3.338,3.338,0,0,1,35.384,26.3a4.689,4.689,0,0,1-.456-2.136,4.563,4.563,0,0,1,.456-2.1,3.48,3.48,0,0,1,1.256-1.4,3.349,3.349,0,0,1,1.824-.5,2.962,2.962,0,0,1,1.768.52,3.373,3.373,0,0,1,1.112,1.344,4.061,4.061,0,0,1,.384,1.736v.32H35.9a3.479,3.479,0,0,0,.68,2.328,2.341,2.341,0,0,0,1.928.888,2.436,2.436,0,0,0,1.5-.456,3.231,3.231,0,0,0,.992-1.352l.8.464A3.437,3.437,0,0,1,38.5,28.176Zm-2.528-4.928h4.8a2.854,2.854,0,0,0-.392-1.136,2.44,2.44,0,0,0-.8-.816,2.059,2.059,0,0,0-1.112-.3,2.356,2.356,0,0,0-1.64.6A2.836,2.836,0,0,0,35.968,23.248Zm11.376,4.928a3.31,3.31,0,0,1-1.824-.512,3.583,3.583,0,0,1-1.264-1.416,4.93,4.93,0,0,1,0-4.176,3.583,3.583,0,0,1,1.264-1.416,3.534,3.534,0,0,1,3.664,0,3.583,3.583,0,0,1,1.264,1.416,4.93,4.93,0,0,1,0,4.176,3.583,3.583,0,0,1-1.264,1.416A3.339,3.339,0,0,1,47.344,28.176Zm0-.912a2.377,2.377,0,0,0,1.336-.384,2.62,2.62,0,0,0,.92-1.08,4.17,4.17,0,0,0,0-3.28,2.62,2.62,0,0,0-.92-1.08,2.377,2.377,0,0,0-1.336-.384,2.339,2.339,0,0,0-1.848.84,3.338,3.338,0,0,0-.728,2.264,3.344,3.344,0,0,0,.728,2.256A2.329,2.329,0,0,0,47.344,27.264Zm9.312,4.192a3.557,3.557,0,0,1-3.2-1.664l.8-.528a2.652,2.652,0,0,0,2.4,1.264,2.184,2.184,0,0,0,1.808-.776,3.664,3.664,0,0,0,.624-2.328V26.048a2.876,2.876,0,0,1-2.5,1.344,3.354,3.354,0,0,1-1.736-.448,3.189,3.189,0,0,1-1.2-1.264,3.987,3.987,0,0,1-.44-1.92,3.94,3.94,0,0,1,.44-1.912,3.2,3.2,0,0,1,1.2-1.256,3.354,3.354,0,0,1,1.736-.448,2.894,2.894,0,0,1,2.544,1.408l.016-1.216h.9v7.088a4.287,4.287,0,0,1-.936,3.056A3.248,3.248,0,0,1,56.656,31.456ZM56.64,26.5a2.351,2.351,0,0,0,2.16-1.3,3.064,3.064,0,0,0,.32-1.432,3.015,3.015,0,0,0-.32-1.424,2.363,2.363,0,0,0-2.16-1.3,2.325,2.325,0,0,0-1.256.344,2.428,2.428,0,0,0-.872.952,3.015,3.015,0,0,0-.32,1.424,3.064,3.064,0,0,0,.32,1.432,2.415,2.415,0,0,0,.872.96A2.325,2.325,0,0,0,56.64,26.5ZM67.392,28V16.8h.976l3.856,5.776L76.032,16.8H77.04V28H76.032V18.512L72.5,23.9h-.544l-3.568-5.392V28Zm15.712.176a3.5,3.5,0,0,1-1.848-.488A3.338,3.338,0,0,1,79.992,26.3a4.689,4.689,0,0,1-.456-2.136,4.563,4.563,0,0,1,.456-2.1,3.48,3.48,0,0,1,1.256-1.4,3.349,3.349,0,0,1,1.824-.5,2.962,2.962,0,0,1,1.768.52,3.373,3.373,0,0,1,1.112,1.344,4.061,4.061,0,0,1,.384,1.736v.32H80.512a3.479,3.479,0,0,0,.68,2.328,2.341,2.341,0,0,0,1.928.888,2.436,2.436,0,0,0,1.5-.456,3.231,3.231,0,0,0,.992-1.352l.8.464A3.437,3.437,0,0,1,83.1,28.176Zm-2.528-4.928h4.8a2.854,2.854,0,0,0-.392-1.136,2.44,2.44,0,0,0-.8-.816,2.059,2.059,0,0,0-1.112-.3,2.356,2.356,0,0,0-1.64.6A2.836,2.836,0,0,0,80.576,23.248Zm11.376,4.928a3.31,3.31,0,0,1-1.824-.512,3.583,3.583,0,0,1-1.264-1.416,4.93,4.93,0,0,1,0-4.176,3.583,3.583,0,0,1,1.264-1.416,3.534,3.534,0,0,1,3.664,0,3.583,3.583,0,0,1,1.264,1.416,4.93,4.93,0,0,1,0,4.176,3.583,3.583,0,0,1-1.264,1.416A3.339,3.339,0,0,1,91.952,28.176Zm0-.912a2.377,2.377,0,0,0,1.336-.384,2.62,2.62,0,0,0,.92-1.08,4.17,4.17,0,0,0,0-3.28,2.62,2.62,0,0,0-.92-1.08,2.377,2.377,0,0,0-1.336-.384,2.339,2.339,0,0,0-1.848.84,3.338,3.338,0,0,0-.728,2.264,3.344,3.344,0,0,0,.728,2.256A2.329,2.329,0,0,0,91.952,27.264Zm9.312,4.192a3.557,3.557,0,0,1-3.2-1.664l.8-.528a2.652,2.652,0,0,0,2.4,1.264,2.184,2.184,0,0,0,1.808-.776,3.664,3.664,0,0,0,.624-2.328V26.048a2.876,2.876,0,0,1-2.5,1.344,3.354,3.354,0,0,1-1.736-.448,3.189,3.189,0,0,1-1.2-1.264,3.987,3.987,0,0,1-.44-1.92,3.94,3.94,0,0,1,.44-1.912,3.2,3.2,0,0,1,1.2-1.256,3.354,3.354,0,0,1,1.736-.448,2.894,2.894,0,0,1,2.544,1.408l.016-1.216h.9v7.088a4.287,4.287,0,0,1-.936,3.056A3.248,3.248,0,0,1,101.264,31.456Zm-.016-4.96a2.351,2.351,0,0,0,2.16-1.3,3.064,3.064,0,0,0,.32-1.432,3.015,3.015,0,0,0-.32-1.424,2.363,2.363,0,0,0-2.16-1.3,2.325,2.325,0,0,0-1.256.344,2.428,2.428,0,0,0-.872.952,3.015,3.015,0,0,0-.32,1.424,3.064,3.064,0,0,0,.32,1.432,2.415,2.415,0,0,0,.872.96A2.325,2.325,0,0,0,101.248,26.5Z" transform="translate(281 8049.552)" fill="#eee"/>
  </g>
</svg>
