<svg xmlns="http://www.w3.org/2000/svg" xmlns:xlink="http://www.w3.org/1999/xlink" width="1365" height="519.972" viewBox="0 0 1365 519.972">
  <defs>
    <linearGradient id="linear-gradient" x2="1" y2="1.034" gradientUnits="objectBoundingBox">
      <stop offset="0" stop-color="#3c3c3c"/>
      <stop offset="1" stop-color="#101010"/>
    </linearGradient>
  </defs>
  <path id="Mayu_Teramoto" data-name="Mayu Teramoto" d="M32.724-17.576c0,9.09-6.06,15.15-15.15,15.15H3.03V0H64.538V-2.426H50.3c-9.09,0-15.15-6.06-15.15-15.15V-202.4c0,.3.3.606.606.909l83.93,136.955-10.3,17.574c-40.6,70.3,81.809,65.447,33.936-12.12l-12.12-20,77.87-133.925V-17.576c0,9.09-6.06,15.15-15.15,15.15H179.677V0h76.355V-2.426H241.488c-9.09,0-15.15-6.06-15.15-15.15v-183.01c0-9.09,6.06-15.15,15.15-15.15h14.544v-2.424H209.068L129.683-81.508,45.45-218.16H3.03v2.424H17.574c4.545,0,10.6,4.242,14.847,10Zm79.688-29.391,8.787-15.15,11.514,18.483C167.86,13.632,76.658,14.541,112.412-46.967ZM410.864-21.515v-86.354c0-29.694-27.876-45.449-54.236-45.449-37.875,0-55.145,15.15-55.145,28.179,0,9.09,9.09,17.271,25.755,17.271,12.726,0,29.088-5.151,37.875-5.151,3.333,0,5.454.909,5.454,3.333,0,12.12-95.747,26.967-95.747,73.628,0,24.543,21.21,37.875,45.146,37.875,29.391,0,65.75-20.6,65.75-65.144h-2.121c0,40.3-31.815,61.508-56.357,61.508-19.089,0-35.754-12.423-35.754-38.784,0-54.236,93.02-53.63,93.02-70.9,0-4.242-3.333-5.757-8.484-5.757-11.514,0-31.209,6.666-45.752,6.666-9.393,0-14.847-6.969-14.847-14.847,0-11.514,11.211-25.755,37.875-25.755,20.6,0,42.42,13.332,42.42,41.511v88.172c0,32.724,41.208,33.027,44.844-12.12l-2.121-.3C435.406,1.816,410.864,4.543,410.864-21.515ZM586.9-99.082c4.242-7.878,7.575-17.574,7.575-26.361s-2.727-30.6-17.877-30.6a8.409,8.409,0,0,0-8.181,8.484,8.147,8.147,0,0,0,8.181,8.181c11.211,0,15.15,5.151,15.15,13.938,0,8.484-2.727,17.877-6.666,25.452L509.64,47.265c-10.6,20.6-31.512,15.453-31.815-1.212-.3-28.785,53.63-37.572,53.63-57.872,0-10.908-5.757-23.634-10.908-35.754L482.977-134.23a16.181,16.181,0,0,1-1.515-6.06c0-5.454,3.636-9.09,10.6-9.09h14.241V-151.5H430.558v2.121H445.1c9.09,0,17.574,6.969,21.21,15.15l48.177,110.9c3.333,7.575,5.757,13.332,5.757,18.18,0,18.18-57.872,24.846-57.569,52.418.3,23.331,34.239,30,49.085.606ZM660.23-41.816v-111.5l-42.117,11.211.606,2.121,11.514-3.333c8.787-2.121,14.847,2.121,14.847,11.211v88.475c0,57.569,96.959,63.629,112.715,0V1.816L799.608-9.4,799-11.516,787.489-8.183C778.7-6.062,772.945-10.3,772.945-19.394V-153.319l-42.117,11.211.606,2.121,11.514-3.333c8.787-2.121,14.847,2.121,14.847,11.211v69.992C757.795,11.815,660.23,18.177,660.23-41.816ZM92.414,282.421c0,9.09-6.06,15.15-15.15,15.15H63.023v2.424h76.355V297.57H124.835c-9.09,0-15.15-6.06-15.15-15.15V84.261h58.478c9.09,0,17.271,6.666,20.907,14.847l7.575,17.271,2.121-.909L185.434,81.837H16.362L3.03,115.469l2.121.909,7.575-17.271c3.636-8.181,11.817-14.847,20.907-14.847H92.414ZM257.85,146.678c-48.479,0-73.931,38.784-73.931,77.567s25.452,77.567,73.931,77.567c31.815,0,62.417-24.24,62.417-60.3h-2.121c0,32.118-26.664,56.963-56.357,56.963-26.058,0-43.934-15.756-53.63-36.966h1.212c0-41.208,99.989-33.633,99.989-79.385C309.36,166.676,293.3,146.678,257.85,146.678ZM207.25,259.09a91.811,91.811,0,0,1-6.666-35.148c0-37.269,18.18-74.84,61.205-74.84,23.634,0,32.421,17.877,32.421,32.118C294.21,230,210.583,219.7,207.25,259.09Zm159.982,23.634c0,9.09-6.06,15.15-15.15,15.15H337.841v2.121h74.234v-2.121H397.532c-9.09,0-15.15-6.06-15.15-15.15V210.61c0-30.906,17.271-50.3,37.269-57.569,15.756-5.757,13.029,10.3,23.331,10.3,11.211,0,11.211-16.665,0-16.665-25.755,0-52.721,14.544-60.6,45.449V146.678l-41.814,11.211.606,2.121,11.514-3.333c8.787-2.121,14.544,2.121,14.544,11.211Zm225.733-4.242V192.128c0-29.694-27.876-45.449-54.236-45.449-37.875,0-55.145,15.15-55.145,28.179,0,9.09,9.09,17.271,25.755,17.271,12.726,0,29.088-5.151,37.875-5.151,3.333,0,5.454.909,5.454,3.333,0,12.12-95.747,26.967-95.747,73.628,0,24.543,21.21,37.875,45.147,37.875,29.391,0,65.75-20.6,65.75-65.144h-2.121c0,40.3-31.815,61.508-56.357,61.508-19.089,0-35.754-12.423-35.754-38.784,0-54.236,93.02-53.63,93.02-70.9,0-4.242-3.333-5.757-8.484-5.757-11.514,0-31.209,6.666-45.753,6.666-9.393,0-14.847-6.969-14.847-14.847,0-11.514,11.211-25.755,37.875-25.755,20.6,0,42.42,13.332,42.42,41.511v88.172c0,32.724,41.208,33.027,44.844-12.12l-2.121-.3C617.507,301.812,592.965,304.539,592.965,278.482ZM768.4,190.31v92.414c0,9.09-6.06,15.15-15.15,15.15H738.706v2.121H812.94v-2.121H798.7c-9.09,0-15.15-6.06-15.15-15.15V210.61c0-73.931,88.475-79.385,88.475-20.3v92.414c0,9.09-6.06,15.15-15.15,15.15H842.331v2.121h74.234v-2.121H902.324c-9.09,0-15.15-6.06-15.15-15.15v-90.6c0-57.266-88.778-63.629-103.625-.606-.606-56.66-88.778-62.72-103.928,0V146.678l-41.814,11.211.606,2.121,11.514-3.333c8.787-2.121,14.544,2.121,14.544,11.211V282.724c0,9.09-6.06,15.15-15.15,15.15H635.081v2.121h74.234v-2.121H694.771c-9.09,0-15.15-6.06-15.15-15.15V210.61C679.622,136.679,768.4,131.225,768.4,190.31Zm241.488,109.382c-82.112,0-82.112-150.892,0-150.892S1092,299.691,1009.888,299.691Zm0,2.121c104.231,0,104.231-155.134,0-155.134S905.657,301.812,1009.888,301.812ZM1128.663,175.16V278.482c0,32.724,56.66,33.027,66.356-12.12l-2.121-.3c-9.09,35.754-49.085,41.511-49.085,12.423V150.617h41.813V148.5h-41.813V109.409h-3.03c0,32.421-17.271,39.087-29.391,39.087v2.121h17.271Zm161.194,124.532c-82.112,0-82.112-150.892,0-150.892S1371.969,299.691,1289.857,299.691Zm0,2.121c104.231,0,104.231-155.134,0-155.134S1185.626,301.812,1289.857,301.812Z" transform="translate(-3.03 218.16)" fill="url(#linear-gradient)"/>
</svg>
