<svg xmlns="http://www.w3.org/2000/svg" xmlns:xlink="http://www.w3.org/1999/xlink" width="175" height="1718" viewBox="0 0 175 1718">
  <defs>
    <clipPath id="clip-path">
      <rect id="長方形_86" data-name="長方形 86" width="1718" height="175" transform="translate(0 110)" fill="#fff"/>
    </clipPath>
  </defs>
  <g id="hagoromo_text_101010" transform="translate(285) rotate(90)" clip-path="url(#clip-path)">
    <path id="パス_25" data-name="パス 25" d="M18.36-9.86c0,5.1-3.4,8.5-8.5,8.5H1.87V0H44.71V-1.36H36.55c-5.1,0-8.5-3.4-8.5-8.5V-72.59c0-3.91,5.1-6.97,9.86-6.97,11.05,0,25.16,16.66,50.49,16.66,4.76,0,8.16-2.21,9.86-4.93V-9.86c0,5.1-3.4,8.5-8.5,8.5H81.77V0h42.84V-1.36h-8.16c-5.1,0-8.5-3.4-8.5-8.5V-112.54c0-5.1,3.4-8.5,8.5-8.5h8.16v-1.36H81.77v1.36h7.99c5.1,0,8.5,3.4,8.5,8.5v40.63c0,2.89-3.4,7.65-9.86,7.65-11.39,0-25.33-16.66-50.49-16.66a13.378,13.378,0,0,0-9.86,4.42v-36.04c0-5.1,3.4-8.5,8.5-8.5h8.16v-1.36H1.87v1.36H9.86c5.1,0,8.5,3.4,8.5,8.5Zm194.99-2.21V-60.52c0-16.66-15.64-25.5-30.43-25.5-21.25,0-30.94,8.5-30.94,15.81,0,5.1,5.1,9.69,14.45,9.69,7.14,0,16.32-2.89,21.25-2.89,1.87,0,3.06.51,3.06,1.87,0,6.8-53.72,15.13-53.72,41.31,0,13.77,11.9,21.25,25.33,21.25,16.49,0,36.89-11.56,36.89-36.55h-1.19c0,22.61-17.85,34.51-31.62,34.51-10.71,0-20.06-6.97-20.06-21.76,0-30.43,52.19-30.09,52.19-39.78,0-2.38-1.87-3.23-4.76-3.23-6.46,0-17.51,3.74-25.67,3.74a8.029,8.029,0,0,1-8.33-8.33c0-6.46,6.29-14.45,21.25-14.45,11.56,0,23.8,7.48,23.8,23.29v49.47c0,18.36,23.12,18.53,25.16-6.8l-1.19-.17C227.12,1.02,213.35,2.55,213.35-12.07Zm70.55-2.21c44.54,0,53.04-46.92,25.67-64.77a19.664,19.664,0,0,1-6.63-15.81c.34-5.78,5.78-5.95,8.16-5.78,6.29.34,6.8-9.01.68-9.35-5.78-.34-9.69,10.71-9.86,15.13A20.936,20.936,0,0,0,306-81.09a47.71,47.71,0,0,0-22.1-4.93c-51.85,0-54.91,63.58-9.18,71.06-16.15,1.7-22.44,8.33-22.44,13.77,0,4.08,3.57,7.48,9.35,7.48,3.74,0,7.82-1.02,12.24-2.21a13.773,13.773,0,0,0-3.06,9.01c0,7.82,5.95,16.15,19.04,16.15,12.75,0,27.37-8.67,27.37-25.5,0-7.48-5.44-13.94-15.64-13.94-14.45,0-29.75,9.01-40.97,9.01-2.89,0-4.59-1.36-4.59-3.06C256.02-7.99,264.35-14.28,283.9-14.28Zm0-1.19c-42.67,0-42.67-69.36,0-69.36S326.57-15.47,283.9-15.47ZM275.91,3.4c8.33-2.55,17.17-5.95,25.16-5.95,8.67,0,13.09,4.59,13.09,10.2,0,13.09-12.92,20.4-24.31,20.4-12.24,0-17.85-7.99-17.85-15.3A12.434,12.434,0,0,1,275.91,3.4ZM387.26-.17c-46.07,0-46.07-84.66,0-84.66S433.33-.17,387.26-.17Zm0,1.19c58.48,0,58.48-87.04,0-87.04S328.78,1.02,387.26,1.02Zm73.1-10.71c0,5.1-3.4,8.5-8.5,8.5h-7.99V0h41.65V-1.19h-8.16c-5.1,0-8.5-3.4-8.5-8.5V-50.15c0-17.34,9.69-28.22,20.91-32.3,8.84-3.23,7.31,5.78,13.09,5.78,6.29,0,6.29-9.35,0-9.35-14.45,0-29.58,8.16-34,25.5v-25.5L445.4-79.73l.34,1.19,6.46-1.87c4.93-1.19,8.16,1.19,8.16,6.29ZM562.7-.17c-46.07,0-46.07-84.66,0-84.66S608.77-.17,562.7-.17Zm0,1.19c58.48,0,58.48-87.04,0-87.04S504.22,1.02,562.7,1.02ZM694.11-61.54V-9.69c0,5.1-3.4,8.5-8.5,8.5h-8.16V0H719.1V-1.19h-7.99c-5.1,0-8.5-3.4-8.5-8.5V-50.15c0-41.48,49.64-44.54,49.64-11.39V-9.69c0,5.1-3.4,8.5-8.5,8.5h-8.16V0h41.65V-1.19h-7.99c-5.1,0-8.5-3.4-8.5-8.5V-60.52c0-32.13-49.81-35.7-58.14-.34-.34-31.79-49.81-35.19-58.31,0V-86.02l-23.46,6.29.34,1.19,6.46-1.87c4.93-1.19,8.16,1.19,8.16,6.29V-9.69c0,5.1-3.4,8.5-8.5,8.5h-7.99V0h41.65V-1.19H652.8c-5.1,0-8.5-3.4-8.5-8.5V-50.15C644.3-91.63,694.11-94.69,694.11-61.54ZM830.45-.17c-46.07,0-46.07-84.66,0-84.66S876.52-.17,830.45-.17Zm0,1.19c58.48,0,58.48-87.04,0-87.04S771.97,1.02,830.45,1.02ZM1042.27-9.86c1.87,4.76.85,8.5-4.25,8.5h-7.99V0h43.52V-1.36h-8.16c-5.1,0-10.88-3.74-12.75-8.5l-44.2-112.54H998.07l4.25,11.05L989.57-78.37a16.52,16.52,0,0,0-1.36,6.63c0,14.79,23.63,18.02,23.63,23.97,0,1.02-.51,1.36-1.36,1.36-3.06,0-14.28-5.27-20.74-5.27-8.16,0-12.58,4.76-21.93,28.39L962.54-9.86c-1.87,4.76-7.65,8.5-12.75,8.5H941.8V0h34.85V-1.36h-8.33c-3.57,0-5.1-1.87-5.1-4.59a11.6,11.6,0,0,1,.85-3.91l5.44-13.43c8.84-22.61,12.75-27.03,20.23-27.03,6.97,0,19.55,6.63,25.84,6.63,1.7,0,3.06-.51,3.4-2.04,2.38-7.82-29.58-10.2-29.58-25.84a13.719,13.719,0,0,1,1.19-5.44l12.58-32.13Zm75.65-76.16c-55.42,0-55.42,87.04,0,87.04,17.85,0,35.02-13.6,35.02-33.83h-1.19A32.072,32.072,0,0,1,1120.13-.85c-44.88,0-46.07-83.98-2.21-83.98,11.73,0,21.93,5.78,26.86,15.3,4.59,8.67-3.74,11.9-3.74,16.83a4.718,4.718,0,0,0,4.59,4.76,4.752,4.752,0,0,0,4.76-4.76C1150.39-72.08,1136.62-86.02,1117.92-86.02Zm126.14,73.95V-60.52c0-16.66-15.64-25.5-30.43-25.5-21.25,0-30.94,8.5-30.94,15.81,0,5.1,5.1,9.69,14.45,9.69,7.14,0,16.32-2.89,21.25-2.89,1.87,0,3.06.51,3.06,1.87,0,6.8-53.72,15.13-53.72,41.31,0,13.77,11.9,21.25,25.33,21.25,16.49,0,36.89-11.56,36.89-36.55h-1.19c0,22.61-17.85,34.51-31.62,34.51-10.71,0-20.06-6.97-20.06-21.76,0-30.43,52.19-30.09,52.19-39.78,0-2.38-1.87-3.23-4.76-3.23-6.46,0-17.51,3.74-25.67,3.74a8.029,8.029,0,0,1-8.33-8.33c0-6.46,6.29-14.45,21.25-14.45,11.56,0,23.8,7.48,23.8,23.29v49.47c0,18.36,23.12,18.53,25.16-6.8l-1.19-.17C1257.83,1.02,1244.06,2.55,1244.06-12.07Zm69.53-73.95c-54.4,0-54.4,87.04,0,87.04,15.13,0,29.41-9.86,33.32-25.16V1.02l23.46-6.29-.34-1.19-6.46,1.7c-4.93,1.36-8.16-1.19-8.16-6.29V-124.27l-23.46,6.29.34,1.19,6.46-1.7c4.93-1.36,8.16,1.19,8.16,6.29v51C1342.83-76.33,1328.55-86.02,1313.59-86.02Zm2.04,85.17c-44.71,0-44.71-83.3,0-83.3,16.66,0,31.28,13.94,31.28,31.96v19.38C1346.91-14.79,1332.29-.85,1315.63-.85Zm106.42-85.17c-27.2,0-41.48,21.76-41.48,43.52s14.28,43.52,41.48,43.52c17.85,0,35.02-13.6,35.02-33.83h-1.19A32.072,32.072,0,0,1,1424.26-.85c-14.62,0-24.65-8.84-30.09-20.74h.68c0-23.12,56.1-18.87,56.1-44.54C1450.95-74.8,1441.94-86.02,1422.05-86.02Zm-28.39,63.07a51.513,51.513,0,0,1-3.74-19.72c0-20.91,10.2-41.99,34.34-41.99,13.26,0,18.19,10.03,18.19,18.02C1442.45-39.27,1395.53-45.05,1393.66-22.95Zm149.09-38.59V-9.69c0,5.1-3.4,8.5-8.5,8.5h-8.16V0h41.65V-1.19h-7.99c-5.1,0-8.5-3.4-8.5-8.5V-50.15c0-41.48,49.64-44.54,49.64-11.39V-9.69c0,5.1-3.4,8.5-8.5,8.5h-8.16V0h41.65V-1.19h-7.99c-5.1,0-8.5-3.4-8.5-8.5V-60.52c0-32.13-49.81-35.7-58.14-.34-.34-31.79-49.81-35.19-58.31,0V-86.02l-23.46,6.29.34,1.19,6.46-1.87c4.93-1.19,8.16,1.19,8.16,6.29V-9.69c0,5.1-3.4,8.5-8.5,8.5h-7.99V0h41.65V-1.19h-8.16c-5.1,0-8.5-3.4-8.5-8.5V-50.15C1492.94-91.63,1542.75-94.69,1542.75-61.54Zm167.11,5.95c2.38-4.42,4.25-9.86,4.25-14.79s-1.53-17.17-10.03-17.17a4.718,4.718,0,0,0-4.59,4.76,4.571,4.571,0,0,0,4.59,4.59c6.29,0,8.5,2.89,8.5,7.82a32.463,32.463,0,0,1-3.74,14.28l-42.33,82.62c-5.95,11.56-17.68,8.67-17.85-.68-.17-16.15,30.09-21.08,30.09-32.47,0-6.12-3.23-13.26-6.12-20.06l-21.08-48.62a9.078,9.078,0,0,1-.85-3.4c0-3.06,2.04-5.1,5.95-5.1h7.99V-85h-42.5v1.19h8.16c5.1,0,9.86,3.91,11.9,8.5l27.03,62.22c1.87,4.25,3.23,7.48,3.23,10.2,0,10.2-32.47,13.94-32.3,29.41.17,13.09,19.21,16.83,27.54.34Z" transform="translate(-1 235)" fill="#101010"/>
  </g>
</svg>
