<svg xmlns="http://www.w3.org/2000/svg" xmlns:xlink="http://www.w3.org/1999/xlink" width="533" height="205" viewBox="0 0 533 205">
  <defs>
    <clipPath id="clip-path">
      <rect id="長方形_55" data-name="長方形 55" width="533" height="205" transform="translate(100 222)" fill="#fff"/>
    </clipPath>
  </defs>
  <g id="Mayu_Teramoto" data-name="Mayu Teramoto" transform="translate(-100 -222)" clip-path="url(#clip-path)">
    <path id="パス_9" data-name="パス 9" d="M12.636-6.786a5.527,5.527,0,0,1-5.85,5.85H1.17V0H24.921V-.936h-5.5a5.527,5.527,0,0,1-5.85-5.85v-71.37c0,.117.117.234.234.351L46.215-24.921l-3.978,6.786c-15.678,27.144,31.59,25.272,13.1-4.68l-4.68-7.722L80.73-82.251V-6.786a5.527,5.527,0,0,1-5.85,5.85h-5.5V0H98.865V-.936H93.249a5.527,5.527,0,0,1-5.85-5.85V-77.454a5.527,5.527,0,0,1,5.85-5.85h5.616v-.936H80.73L50.076-31.473,17.55-84.24H1.17v.936H6.786c1.755,0,4.1,1.638,5.733,3.861ZM43.407-18.135l3.393-5.85,4.446,7.137C64.818,5.265,29.6,5.616,43.407-18.135ZM158.652-8.307V-41.652c0-11.466-10.764-17.55-20.943-17.55-14.625,0-21.294,5.85-21.294,10.881,0,3.51,3.51,6.669,9.945,6.669,4.914,0,11.232-1.989,14.625-1.989,1.287,0,2.106.351,2.106,1.287,0,4.68-36.972,10.413-36.972,28.431C106.119-4.446,114.309.7,123.552.7c11.349,0,25.389-7.956,25.389-25.155h-.819C148.122-8.892,135.837-.7,126.36-.7c-7.371,0-13.806-4.8-13.806-14.976,0-20.943,35.919-20.709,35.919-27.378,0-1.638-1.287-2.223-3.276-2.223-4.446,0-12.051,2.574-17.667,2.574a5.526,5.526,0,0,1-5.733-5.733c0-4.446,4.329-9.945,14.625-9.945,7.956,0,16.38,5.148,16.38,16.029V-8.307c0,12.636,15.912,12.753,17.316-4.68L169.3-13.1C168.129.7,158.652,1.755,158.652-8.307Zm67.977-29.952a22.684,22.684,0,0,0,2.925-10.179c0-3.393-1.053-11.817-6.9-11.817a3.247,3.247,0,0,0-3.159,3.276,3.146,3.146,0,0,0,3.159,3.159c4.329,0,5.85,1.989,5.85,5.382a22.343,22.343,0,0,1-2.574,9.828L196.794,18.252c-4.1,7.956-12.168,5.967-12.285-.468-.117-11.115,20.709-14.508,20.709-22.347,0-4.212-2.223-9.126-4.212-13.806L186.5-51.831a6.248,6.248,0,0,1-.585-2.34c0-2.106,1.4-3.51,4.095-3.51h5.5V-58.5h-29.25v.819h5.616c3.51,0,6.786,2.691,8.19,5.85l18.6,42.822c1.287,2.925,2.223,5.148,2.223,7.02,0,7.02-22.347,9.594-22.23,20.241.117,9.009,13.221,11.583,18.954.234Zm28.314,22.113V-59.2L238.68-54.873l.234.819,4.446-1.287c3.393-.819,5.733.819,5.733,4.329v34.164c0,22.23,37.44,24.57,43.524,0V.7l16.146-4.329-.234-.819-4.446,1.287c-3.393.819-5.616-.819-5.616-4.329V-59.2L282.2-54.873l.234.819,4.446-1.287c3.393-.819,5.733.819,5.733,4.329v27.027C292.617,4.563,254.943,7.02,254.943-16.146ZM35.685,110.214a5.527,5.527,0,0,1-5.85,5.85h-5.5V117H53.82v-.936H48.2a5.527,5.527,0,0,1-5.85-5.85V33.7H64.935c3.51,0,6.669,2.574,8.073,5.733L75.933,46.1l.819-.351L71.6,32.76H6.318L1.17,45.747l.819.351,2.925-6.669c1.4-3.159,4.563-5.733,8.073-5.733h22.7ZM99.567,57.8c-18.72,0-28.548,14.976-28.548,29.952S80.847,117.7,99.567,117.7c12.285,0,24.1-9.36,24.1-23.283h-.819a22.073,22.073,0,0,1-21.762,22c-10.062,0-16.965-6.084-20.709-14.274h.468c0-15.912,38.61-12.987,38.61-30.654C119.457,65.52,113.256,57.8,99.567,57.8ZM80.028,101.205a35.452,35.452,0,0,1-2.574-13.572c0-14.391,7.02-28.9,23.634-28.9,9.126,0,12.519,6.9,12.519,12.4C113.607,89.973,81.315,86,80.028,101.205Zm61.776,9.126a5.527,5.527,0,0,1-5.85,5.85h-5.5V117H159.12v-.819H153.5a5.527,5.527,0,0,1-5.85-5.85V82.485c0-11.934,6.669-19.422,14.391-22.23,6.084-2.223,5.031,3.978,9.009,3.978,4.329,0,4.329-6.435,0-6.435-9.945,0-20.358,5.616-23.4,17.55V57.8l-16.146,4.329.234.819,4.446-1.287c3.393-.819,5.616.819,5.616,4.329Zm87.165-1.638V75.348c0-11.466-10.764-17.55-20.943-17.55-14.625,0-21.294,5.85-21.294,10.881,0,3.51,3.51,6.669,9.945,6.669,4.914,0,11.232-1.989,14.625-1.989,1.287,0,2.106.351,2.106,1.287,0,4.68-36.972,10.413-36.972,28.431,0,9.477,8.19,14.625,17.433,14.625,11.349,0,25.389-7.956,25.389-25.155h-.819c0,15.561-12.285,23.751-21.762,23.751-7.371,0-13.806-4.8-13.806-14.976,0-20.943,35.919-20.709,35.919-27.378,0-1.638-1.287-2.223-3.276-2.223-4.446,0-12.051,2.574-17.667,2.574a5.526,5.526,0,0,1-5.733-5.733c0-4.446,4.329-9.945,14.625-9.945,7.956,0,16.38,5.148,16.38,16.029v34.047c0,12.636,15.912,12.753,17.316-4.68l-.819-.117C238.446,117.7,228.969,118.755,228.969,108.693Zm67.743-34.047v35.685a5.527,5.527,0,0,1-5.85,5.85h-5.616V117h28.665v-.819h-5.5a5.527,5.527,0,0,1-5.85-5.85V82.485c0-28.548,34.164-30.654,34.164-7.839v35.685a5.527,5.527,0,0,1-5.85,5.85H325.26V117h28.665v-.819h-5.5a5.527,5.527,0,0,1-5.85-5.85V75.348c0-22.113-34.281-24.57-40.014-.234-.234-21.879-34.281-24.219-40.131,0V57.8l-16.146,4.329.234.819,4.446-1.287c3.393-.819,5.616.819,5.616,4.329v44.343a5.527,5.527,0,0,1-5.85,5.85h-5.5V117H273.9v-.819h-5.616a5.527,5.527,0,0,1-5.85-5.85V82.485C262.431,53.937,296.712,51.831,296.712,74.646Zm93.249,42.237c-31.707,0-31.707-58.266,0-58.266S421.668,116.883,389.961,116.883Zm0,.819c40.248,0,40.248-59.9,0-59.9S349.713,117.7,389.961,117.7ZM435.825,68.8v39.9c0,12.636,21.879,12.753,25.623-4.68l-.819-.117c-3.51,13.806-18.954,16.029-18.954,4.8V59.319h16.146V58.5H441.675V43.407h-1.17c0,12.519-6.669,15.093-11.349,15.093v.819h6.669Zm62.244,48.087c-31.707,0-31.707-58.266,0-58.266S529.776,116.883,498.069,116.883Zm0,.819c40.248,0,40.248-59.9,0-59.9S457.821,117.7,498.069,117.7Z" transform="translate(100 308)" fill="#eee"/>
  </g>
</svg>
