<svg xmlns="http://www.w3.org/2000/svg" xmlns:xlink="http://www.w3.org/1999/xlink" width="878" height="127" viewBox="0 0 878 127">
  <defs>
    <clipPath id="clip-path">
      <rect id="長方形_59" data-name="長方形 59" width="878" height="127" transform="translate(100 549)" fill="#fff"/>
    </clipPath>
  </defs>
  <g id="Illustration" transform="translate(-100 -549)" clip-path="url(#clip-path)">
    <path id="パス_8" data-name="パス 8" d="M18.36-9.86c0,5.1-3.4,8.5-8.5,8.5H1.87V0H44.71V-1.36H36.55c-5.1,0-8.5-3.4-8.5-8.5V-112.54c0-5.1,3.4-8.5,8.5-8.5h8.16v-1.36H1.87v1.36H9.86c5.1,0,8.5,3.4,8.5,8.5Zm52.87.17c0,5.1-3.4,8.5-8.5,8.5H54.74V0H96.39V-1.19H88.23c-5.1,0-8.5-3.4-8.5-8.5V-124.27l-23.46,6.29.34,1.19,6.46-1.7c4.93-1.36,8.16,1.19,8.16,6.29Zm51.34,0c0,5.1-3.4,8.5-8.5,8.5h-7.99V0h41.65V-1.19h-8.16c-5.1,0-8.5-3.4-8.5-8.5V-124.27l-23.46,6.29.34,1.19,6.46-1.7c4.93-1.36,8.16,1.19,8.16,6.29Zm53.55-13.77V-86.02l-23.63,6.29.34,1.19,6.46-1.87c4.93-1.19,8.33,1.19,8.33,6.29v49.64c0,32.3,54.4,35.7,63.24,0V1.02l23.46-6.29-.34-1.19-6.46,1.87c-4.93,1.19-8.16-1.19-8.16-6.29V-86.02l-23.63,6.29.34,1.19,6.46-1.87c4.93-1.19,8.33,1.19,8.33,6.29v39.27C230.86,6.63,176.12,10.2,176.12-23.46ZM298.86-86.02c-46.75,0-44.71,48.62-.68,37.91,37.06-8.84,41.14,47.6,1.19,47.6-19.04,0-31.28-10.54-31.28-18.7,0-7.14,7.31-4.93,7.31-11.73a4.648,4.648,0,0,0-4.76-4.76c-4.93,0-5.44,6.8-5.44,10.54,0,16.66,15.98,26.18,34,26.18,51.51,0,49.64-62.22-1.02-50.32-34.85,8.33-30.26-35.19.68-35.19,13.26,0,26.18,6.8,26.18,13.6,0,2.89-3.91,4.59-3.91,8.33a4.718,4.718,0,0,0,4.76,4.59,4.571,4.571,0,0,0,4.59-4.59C330.48-75.65,315.86-86.02,298.86-86.02Zm60.18,15.98v57.97c0,18.36,31.79,18.53,37.23-6.8l-1.19-.17c-5.1,20.06-27.54,23.29-27.54,6.97V-83.81H391V-85H367.54v-21.93h-1.7c0,18.19-9.69,21.93-16.49,21.93v1.19h9.69ZM417.69-9.69c0,5.1-3.4,8.5-8.5,8.5H401.2V0h41.65V-1.19h-8.16c-5.1,0-8.5-3.4-8.5-8.5V-50.15c0-17.34,9.69-28.22,20.91-32.3,8.84-3.23,7.31,5.78,13.09,5.78,6.29,0,6.29-9.35,0-9.35-14.45,0-29.58,8.16-34,25.5v-25.5l-23.46,6.29.34,1.19,6.46-1.87c4.93-1.19,8.16,1.19,8.16,6.29Zm125.97-2.38V-60.52c0-16.66-15.64-25.5-30.43-25.5-21.25,0-30.94,8.5-30.94,15.81,0,5.1,5.1,9.69,14.45,9.69,7.14,0,16.32-2.89,21.25-2.89,1.87,0,3.06.51,3.06,1.87,0,6.8-53.72,15.13-53.72,41.31,0,13.77,11.9,21.25,25.33,21.25,16.49,0,36.89-11.56,36.89-36.55h-1.19c0,22.61-17.85,34.51-31.62,34.51-10.71,0-20.06-6.97-20.06-21.76,0-30.43,52.19-30.09,52.19-39.78,0-2.38-1.87-3.23-4.76-3.23-6.46,0-17.51,3.74-25.67,3.74a8.029,8.029,0,0,1-8.33-8.33c0-6.46,6.29-14.45,21.25-14.45,11.56,0,23.8,7.48,23.8,23.29v49.47c0,18.36,23.12,18.53,25.16-6.8l-1.19-.17C557.43,1.02,543.66,2.55,543.66-12.07Zm34.68-57.97v57.97c0,18.36,31.79,18.53,37.23-6.8l-1.19-.17c-5.1,20.06-27.54,23.29-27.54,6.97V-83.81H610.3V-85H586.84v-21.93h-1.7c0,18.19-9.69,21.93-16.49,21.93v1.19h9.69Zm72.25-36.72a4.9,4.9,0,0,0-4.93-4.76,4.865,4.865,0,0,0-4.76,4.76,4.9,4.9,0,0,0,4.76,4.93A4.934,4.934,0,0,0,650.59-106.76ZM641.41-9.69c0,5.1-3.4,8.5-8.5,8.5h-7.99V0h41.65V-1.19h-8.16c-5.1,0-8.5-3.4-8.5-8.5V-86.02l-23.46,6.29.34,1.19,6.46-1.87c4.93-1.19,8.16,1.19,8.16,6.29ZM720.46-.17c-46.07,0-46.07-84.66,0-84.66S766.53-.17,720.46-.17Zm0,1.19c58.48,0,58.48-87.04,0-87.04S661.98,1.02,720.46,1.02ZM851.02-61.54V-9.69c0,5.1-3.4,8.5-8.5,8.5h-8.16V0h41.65V-1.19h-7.99c-5.1,0-8.5-3.4-8.5-8.5V-60.52c0-32.3-54.57-35.7-63.41,0v-25.5l-23.46,6.29.34,1.19,6.46-1.87c4.93-1.19,8.16,1.19,8.16,6.29V-9.69c0,5.1-3.4,8.5-8.5,8.5h-7.99V0h41.65V-1.19h-8.16c-5.1,0-8.5-3.4-8.5-8.5V-50.15C796.11-91.63,851.02-95.2,851.02-61.54Z" transform="translate(100 674)" fill="#5a5a5a"/>
  </g>
</svg>
