<svg xmlns="http://www.w3.org/2000/svg" xmlns:xlink="http://www.w3.org/1999/xlink" width="352" height="70" viewBox="0 0 352 70"><defs><clipPath id="a"><rect width="352" height="70" transform="translate(101 2254)" fill="#fff"/></clipPath></defs><g transform="translate(-101 -2254)" clip-path="url(#a)"><path d="M15.817-50.046V-68.353h11.6c25.017,0,25.017,39.394,4.792,39.394C20.322-28.959,15.817-41.995,15.817-50.046Zm11.6-19.074H1.056v.767h4.5a4.528,4.528,0,0,1,4.792,4.792V-5.668A4.528,4.528,0,0,1,5.561-.875h-4.5v.767H25.21V-.875h-4.6a4.528,4.528,0,0,1-4.792-4.792V-43.816c1.821,7.476,6.709,15.623,16.39,15.623C60.579-28.192,60.579-69.12,27.415-69.12ZM68.438-5.572A4.528,4.528,0,0,1,63.646-.779h-4.5v.671H82.624V-.779h-4.6a4.528,4.528,0,0,1-4.792-4.792V-28.384c0-9.777,5.463-15.911,11.789-18.211,4.984-1.821,4.122,3.259,7.38,3.259a2.636,2.636,0,1,0,0-5.272c-8.147,0-16.678,4.6-19.17,14.377V-48.608L60-45.062l.192.671,3.642-1.054c2.78-.671,4.6.671,4.6,3.546ZM124.894-.2c-25.975,0-25.975-47.733,0-47.733S150.869-.2,124.894-.2Zm0,.671c32.972,0,32.972-49.075,0-49.075S91.921.467,124.894.467Zm57.222-49.075c-31.247,0-31.247,49.075,0,49.075,10.064,0,19.745-7.668,19.745-19.074h-.671A18.083,18.083,0,0,1,183.362-.588c-25.3,0-25.975-47.35-1.246-47.35,6.614,0,12.365,3.259,15.144,8.626,2.588,4.888-2.109,6.709-2.109,9.489a2.66,2.66,0,0,0,2.588,2.684,2.679,2.679,0,0,0,2.684-2.684C200.423-40.749,192.659-48.608,182.116-48.608Zm52.334,0c-15.336,0-23.387,12.269-23.387,24.537S219.114.467,234.45.467c10.064,0,19.745-7.668,19.745-19.074h-.671A18.083,18.083,0,0,1,235.7-.588c-8.243,0-13.9-4.984-16.965-11.694h.383c0-13.036,31.63-10.639,31.63-25.113C250.744-42.282,245.664-48.608,234.45-48.608Zm-16.007,35.56a29.043,29.043,0,0,1-2.109-11.119c0-11.789,5.751-23.675,19.362-23.675,7.476,0,10.256,5.655,10.256,10.16C245.952-22.25,219.5-25.508,218.443-13.048Zm63.644-35.56c-26.359,0-25.208,27.413-.383,21.374C302.6-32.218,304.9-.4,282.375-.4c-10.735,0-17.636-5.943-17.636-10.543,0-4.026,4.122-2.78,4.122-6.614a2.621,2.621,0,0,0-2.684-2.684c-2.78,0-3.067,3.834-3.067,5.943,0,9.393,9.01,14.761,19.17,14.761,29.042,0,27.988-35.081-.575-28.371-19.649,4.7-17.061-19.841.383-19.841,7.476,0,14.761,3.834,14.761,7.668,0,1.629-2.2,2.588-2.2,4.7a2.66,2.66,0,0,0,2.684,2.588,2.577,2.577,0,0,0,2.588-2.588C299.915-42.761,291.672-48.608,282.087-48.608Zm49.458,0c-26.359,0-25.208,27.413-.383,21.374,20.9-4.984,23.2,26.838.671,26.838C321.1-.4,314.2-6.339,314.2-10.939c0-4.026,4.122-2.78,4.122-6.614a2.621,2.621,0,0,0-2.684-2.684c-2.78,0-3.067,3.834-3.067,5.943,0,9.393,9.01,14.761,19.17,14.761,29.042,0,27.988-35.081-.575-28.371-19.649,4.7-17.061-19.841.383-19.841,7.476,0,14.761,3.834,14.761,7.668,0,1.629-2.2,2.588-2.2,4.7a2.66,2.66,0,0,0,2.684,2.588,2.577,2.577,0,0,0,2.588-2.588C349.373-42.761,341.13-48.608,331.545-48.608Z" transform="translate(99.944 2323.12)" fill="#eee"/></g></svg>