<svg xmlns="http://www.w3.org/2000/svg" xmlns:xlink="http://www.w3.org/1999/xlink" width="175" height="3418" viewBox="0 0 175 3418">
  <defs>
    <clipPath id="clip-path">
      <rect id="長方形_88" data-name="長方形 88" width="3418" height="175" transform="translate(0.5 118.5)" fill="#fff"/>
    </clipPath>
  </defs>
  <g id="connect_text_101010" transform="translate(293.5 -0.5) rotate(90)" clip-path="url(#clip-path)">
    <path id="パス_27" data-name="パス 27" d="M51.85-9.86c0,5.1-3.4,8.5-8.5,8.5H35.36V0H78.2V-1.36H70.04c-5.1,0-8.5-3.4-8.5-8.5V-121.04H94.35c5.1,0,9.69,3.74,11.73,8.33l4.25,9.69,1.19-.51-7.48-18.87H9.18L1.7-103.53l1.19.51,4.25-9.69c2.04-4.59,6.63-8.33,11.73-8.33H51.85ZM198.9-61.54V-9.69c0,5.1-3.4,8.5-8.5,8.5h-8.16V0h41.65V-1.19H215.9c-5.1,0-8.5-3.4-8.5-8.5V-60.52c0-32.3-54.57-35.7-63.41,0v-63.75l-23.46,6.29.34,1.19,6.46-1.7c4.93-1.36,8.16,1.19,8.16,6.29V-9.69c0,5.1-3.4,8.5-8.5,8.5H119V0h41.65V-1.19h-8.16c-5.1,0-8.5-3.4-8.5-8.5V-50.15C143.99-91.63,198.9-95.2,198.9-61.54Zm77.52-24.48c-27.2,0-41.48,21.76-41.48,43.52S249.22,1.02,276.42,1.02c17.85,0,35.02-13.6,35.02-33.83h-1.19A32.072,32.072,0,0,1,278.63-.85c-14.62,0-24.65-8.84-30.09-20.74h.68c0-23.12,56.1-18.87,56.1-44.54C305.32-74.8,296.31-86.02,276.42-86.02ZM248.03-22.95a51.511,51.511,0,0,1-3.74-19.72c0-20.91,10.2-41.99,34.34-41.99,13.26,0,18.19,10.03,18.19,18.02C296.82-39.27,249.9-45.05,248.03-22.95ZM425.34-86.02c-55.42,0-55.42,87.04,0,87.04,17.85,0,35.02-13.6,35.02-33.83h-1.19A32.072,32.072,0,0,1,427.55-.85c-44.88,0-46.07-83.98-2.21-83.98,11.73,0,21.93,5.78,26.86,15.3,4.59,8.67-3.74,11.9-3.74,16.83a4.718,4.718,0,0,0,4.59,4.76,4.752,4.752,0,0,0,4.76-4.76C457.81-72.08,444.04-86.02,425.34-86.02ZM521.05-.17c-46.07,0-46.07-84.66,0-84.66S567.12-.17,521.05-.17Zm0,1.19c58.48,0,58.48-87.04,0-87.04S462.57,1.02,521.05,1.02Zm71.4-10.71c0,5.1-3.4,8.5-8.5,8.5h-7.99V0h41.65V-1.19h-8.16c-5.1,0-8.5-3.4-8.5-8.5V-50.15c0-17.34,9.69-28.22,20.91-32.3,8.84-3.23,7.31,5.78,13.09,5.78,6.29,0,6.29-9.35,0-9.35-14.45,0-29.58,8.16-34,25.5v-25.5l-23.46,6.29.34,1.19,6.46-1.87c4.93-1.19,8.16,1.19,8.16,6.29ZM709.92-86.02c-14.96,0-29.24,9.69-33.49,24.82V-86.02l-23.46,6.29.34,1.19,6.46-1.87c4.93-1.19,8.16,1.19,8.16,6.29V28.56c0,5.1-3.4,8.5-8.5,8.5h-7.99v1.19h41.65V37.06h-8.16c-5.1,0-8.5-3.4-8.5-8.5V-22.95c4.08,14.11,18.36,23.97,33.32,23.97C764.32,1.02,764.32-86.02,709.92-86.02ZM707.71-.85c-16.66,0-31.28-13.94-31.28-31.96V-52.19c0-18.02,14.62-31.96,31.28-31.96C752.42-84.15,752.42-.85,707.71-.85Zm101.66.68c-46.07,0-46.07-84.66,0-84.66S855.44-.17,809.37-.17Zm0,1.19c58.48,0,58.48-87.04,0-87.04S750.89,1.02,809.37,1.02Zm71.4-10.71c0,5.1-3.4,8.5-8.5,8.5h-7.99V0h41.65V-1.19h-8.16c-5.1,0-8.5-3.4-8.5-8.5V-50.15c0-17.34,9.69-28.22,20.91-32.3,8.84-3.23,7.31,5.78,13.09,5.78,6.29,0,6.29-9.35,0-9.35-14.45,0-29.58,8.16-34,25.5v-25.5l-23.46,6.29.34,1.19,6.46-1.87c4.93-1.19,8.16,1.19,8.16,6.29Zm126.82-2.38V-60.52c0-16.66-15.64-25.5-30.43-25.5-21.25,0-30.94,8.5-30.94,15.81,0,5.1,5.1,9.69,14.45,9.69,7.14,0,16.32-2.89,21.25-2.89,1.87,0,3.06.51,3.06,1.87,0,6.8-53.72,15.13-53.72,41.31,0,13.77,11.9,21.25,25.33,21.25,16.49,0,36.89-11.56,36.89-36.55h-1.19c0,22.61-17.85,34.51-31.62,34.51-10.71,0-20.06-6.97-20.06-21.76,0-30.43,52.19-30.09,52.19-39.78,0-2.38-1.87-3.23-4.76-3.23-6.46,0-17.51,3.74-25.67,3.74a8.029,8.029,0,0,1-8.33-8.33c0-6.46,6.29-14.45,21.25-14.45,11.56,0,23.8,7.48,23.8,23.29v49.47c0,18.36,23.12,18.53,25.16-6.8l-1.19-.17C1021.36,1.02,1007.59,2.55,1007.59-12.07Zm32.13-57.97v57.97c0,18.36,31.79,18.53,37.23-6.8l-1.19-.17c-5.1,20.06-27.54,23.29-27.54,6.97V-83.81h23.46V-85h-23.46v-21.93h-1.7c0,18.19-9.69,21.93-16.49,21.93v1.19h9.69Zm88.23-15.98c-27.2,0-41.48,21.76-41.48,43.52s14.28,43.52,41.48,43.52c17.85,0,35.02-13.6,35.02-33.83h-1.19A32.072,32.072,0,0,1,1130.16-.85c-14.62,0-24.65-8.84-30.09-20.74h.68c0-23.12,56.1-18.87,56.1-44.54C1156.85-74.8,1147.84-86.02,1127.95-86.02Zm-28.39,63.07a51.513,51.513,0,0,1-3.74-19.72c0-20.91,10.2-41.99,34.34-41.99,13.26,0,18.19,10.03,18.19,18.02C1148.35-39.27,1101.43-45.05,1099.56-22.95Zm200.09-38.59V-9.69c0,5.1-3.4,8.5-8.5,8.5h-8.16V0h41.65V-1.19h-7.99c-5.1,0-8.5-3.4-8.5-8.5V-50.15c0-41.48,49.64-44.54,49.64-11.39V-9.69c0,5.1-3.4,8.5-8.5,8.5h-8.16V0h41.65V-1.19h-7.99c-5.1,0-8.5-3.4-8.5-8.5V-60.52c0-32.13-49.81-35.7-58.14-.34-.34-31.79-49.81-35.19-58.31,0V-86.02l-23.46,6.29.34,1.19,6.46-1.87c4.93-1.19,8.16,1.19,8.16,6.29V-9.69c0,5.1-3.4,8.5-8.5,8.5h-7.99V0h41.65V-1.19h-8.16c-5.1,0-8.5-3.4-8.5-8.5V-50.15C1249.84-91.63,1299.65-94.69,1299.65-61.54ZM1465.4-12.07V-60.52c0-16.66-15.64-25.5-30.43-25.5-21.25,0-30.94,8.5-30.94,15.81,0,5.1,5.1,9.69,14.45,9.69,7.14,0,16.32-2.89,21.25-2.89,1.87,0,3.06.51,3.06,1.87,0,6.8-53.72,15.13-53.72,41.31,0,13.77,11.9,21.25,25.33,21.25,16.49,0,36.89-11.56,36.89-36.55h-1.19c0,22.61-17.85,34.51-31.62,34.51-10.71,0-20.06-6.97-20.06-21.76,0-30.43,52.19-30.09,52.19-39.78,0-2.38-1.87-3.23-4.76-3.23-6.46,0-17.51,3.74-25.67,3.74a8.029,8.029,0,0,1-8.33-8.33c0-6.46,6.29-14.45,21.25-14.45,11.56,0,23.8,7.48,23.8,23.29v49.47c0,18.36,23.12,18.53,25.16-6.8l-1.19-.17C1479.17,1.02,1465.4,2.55,1465.4-12.07Zm33.83-57.97v57.97c0,18.36,31.79,18.53,37.23-6.8l-1.19-.17c-5.1,20.06-27.54,23.29-27.54,6.97V-83.81h23.46V-85h-23.46v-21.93h-1.7c0,18.19-9.69,21.93-16.49,21.93v1.19h9.69Zm88.23-15.98c-55.42,0-55.42,87.04,0,87.04,17.85,0,35.02-13.6,35.02-33.83h-1.19A32.072,32.072,0,0,1,1589.67-.85c-44.88,0-46.07-83.98-2.21-83.98,11.73,0,21.93,5.78,26.86,15.3,4.59,8.67-3.74,11.9-3.74,16.83a4.718,4.718,0,0,0,4.59,4.76,4.752,4.752,0,0,0,4.76-4.76C1619.93-72.08,1606.16-86.02,1587.46-86.02Zm121.55,24.48V-9.69c0,5.1-3.4,8.5-8.5,8.5h-8.16V0H1734V-1.19h-7.99c-5.1,0-8.5-3.4-8.5-8.5V-60.52c0-32.3-54.57-35.7-63.41,0v-63.75l-23.46,6.29.34,1.19,6.46-1.7c4.93-1.36,8.16,1.19,8.16,6.29V-9.69c0,5.1-3.4,8.5-8.5,8.5h-7.99V0h41.65V-1.19h-8.16c-5.1,0-8.5-3.4-8.5-8.5V-50.15C1654.1-91.63,1709.01-95.2,1709.01-61.54Zm54.57-45.22a4.9,4.9,0,0,0-4.93-4.76,4.865,4.865,0,0,0-4.76,4.76,4.9,4.9,0,0,0,4.76,4.93A4.934,4.934,0,0,0,1763.58-106.76ZM1754.4-9.69c0,5.1-3.4,8.5-8.5,8.5h-7.99V0h41.65V-1.19h-8.16c-5.1,0-8.5-3.4-8.5-8.5V-86.02l-23.46,6.29.34,1.19,6.46-1.87c4.93-1.19,8.16,1.19,8.16,6.29Zm110.5-51.85V-9.69c0,5.1-3.4,8.5-8.5,8.5h-8.16V0h41.65V-1.19h-7.99c-5.1,0-8.5-3.4-8.5-8.5V-60.52c0-32.3-54.57-35.7-63.41,0v-25.5l-23.46,6.29.34,1.19,6.46-1.87c4.93-1.19,8.16,1.19,8.16,6.29V-9.69c0,5.1-3.4,8.5-8.5,8.5H1785V0h41.65V-1.19h-8.16c-5.1,0-8.5-3.4-8.5-8.5V-50.15C1809.99-91.63,1864.9-95.2,1864.9-61.54Zm72.25,47.26c44.54,0,53.04-46.92,25.67-64.77a19.663,19.663,0,0,1-6.63-15.81c.34-5.78,5.78-5.95,8.16-5.78,6.29.34,6.8-9.01.68-9.35-5.78-.34-9.69,10.71-9.86,15.13a20.936,20.936,0,0,0,4.08,13.77,47.71,47.71,0,0,0-22.1-4.93c-51.85,0-54.91,63.58-9.18,71.06-16.15,1.7-22.44,8.33-22.44,13.77,0,4.08,3.57,7.48,9.35,7.48,3.74,0,7.82-1.02,12.24-2.21a13.773,13.773,0,0,0-3.06,9.01c0,7.82,5.95,16.15,19.04,16.15,12.75,0,27.37-8.67,27.37-25.5,0-7.48-5.44-13.94-15.64-13.94-14.45,0-29.75,9.01-40.97,9.01-2.89,0-4.59-1.36-4.59-3.06C1909.27-7.99,1917.6-14.28,1937.15-14.28Zm0-1.19c-42.67,0-42.67-69.36,0-69.36S1979.82-15.47,1937.15-15.47ZM1929.16,3.4c8.33-2.55,17.17-5.95,25.16-5.95,8.67,0,13.09,4.59,13.09,10.2,0,13.09-12.92,20.4-24.31,20.4-12.24,0-17.85-7.99-17.85-15.3A12.434,12.434,0,0,1,1929.16,3.4Zm155.38-89.42c-46.75,0-44.71,48.62-.68,37.91,37.06-8.84,41.14,47.6,1.19,47.6-19.04,0-31.28-10.54-31.28-18.7,0-7.14,7.31-4.93,7.31-11.73a4.648,4.648,0,0,0-4.76-4.76c-4.93,0-5.44,6.8-5.44,10.54,0,16.66,15.98,26.18,34,26.18,51.51,0,49.64-62.22-1.02-50.32-34.85,8.33-30.26-35.19.68-35.19,13.26,0,26.18,6.8,26.18,13.6,0,2.89-3.91,4.59-3.91,8.33a4.718,4.718,0,0,0,4.76,4.59,4.571,4.571,0,0,0,4.59-4.59C2116.16-75.65,2101.54-86.02,2084.54-86.02Zm97.41,0c-27.2,0-41.48,21.76-41.48,43.52s14.28,43.52,41.48,43.52c17.85,0,35.02-13.6,35.02-33.83h-1.19A32.072,32.072,0,0,1,2184.16-.85c-14.62,0-24.65-8.84-30.09-20.74h.68c0-23.12,56.1-18.87,56.1-44.54C2210.85-74.8,2201.84-86.02,2181.95-86.02Zm-28.39,63.07a51.511,51.511,0,0,1-3.74-19.72c0-20.91,10.2-41.99,34.34-41.99,13.26,0,18.19,10.03,18.19,18.02C2202.35-39.27,2155.43-45.05,2153.56-22.95Zm89.93,13.26c0,5.1-3.4,8.5-8.5,8.5H2227V0h41.65V-1.19h-8.16c-5.1,0-8.5-3.4-8.5-8.5V-50.15c0-17.34,9.69-28.22,20.91-32.3,8.84-3.23,7.31,5.78,13.09,5.78,6.29,0,6.29-9.35,0-9.35-14.45,0-29.58,8.16-34,25.5v-25.5l-23.46,6.29.34,1.19,6.46-1.87c4.93-1.19,8.16,1.19,8.16,6.29Zm84.83-65.62c-2.21-4.59,0-8.5,5.1-8.5h7.99V-85h-41.65v1.19h8.16c5.1,0,9.69,3.91,11.9,8.5L2353.48,0h8.5l-3.4-7.48,24.31-48.11c2.38-4.42,3.23-9.86,3.23-14.79s-2.21-17.17-9.01-17.17a4.718,4.718,0,0,0-4.59,4.76,4.571,4.571,0,0,0,4.59,4.59c6.29,0,7.82,2.89,7.82,7.82a31.775,31.775,0,0,1-3.06,14.28L2357.9-8.84Zm94.35-31.45a4.9,4.9,0,0,0-4.93-4.76,4.865,4.865,0,0,0-4.76,4.76,4.9,4.9,0,0,0,4.76,4.93A4.934,4.934,0,0,0,2422.67-106.76Zm-9.18,97.07c0,5.1-3.4,8.5-8.5,8.5H2397V0h41.65V-1.19h-8.16c-5.1,0-8.5-3.4-8.5-8.5V-86.02l-23.46,6.29.34,1.19,6.46-1.87c4.93-1.19,8.16,1.19,8.16,6.29Zm77.52-76.33c-55.42,0-55.42,87.04,0,87.04,17.85,0,35.02-13.6,35.02-33.83h-1.19A32.072,32.072,0,0,1,2493.22-.85c-44.88,0-46.07-83.98-2.21-83.98,11.73,0,21.93,5.78,26.86,15.3,4.59,8.67-3.74,11.9-3.74,16.83a4.718,4.718,0,0,0,4.59,4.76,4.752,4.752,0,0,0,4.76-4.76C2523.48-72.08,2509.71-86.02,2491.01-86.02Zm93.33,0c-27.2,0-41.48,21.76-41.48,43.52s14.28,43.52,41.48,43.52c17.85,0,35.02-13.6,35.02-33.83h-1.19A32.072,32.072,0,0,1,2586.55-.85c-14.62,0-24.65-8.84-30.09-20.74h.68c0-23.12,56.1-18.87,56.1-44.54C2613.24-74.8,2604.23-86.02,2584.34-86.02Zm-28.39,63.07a51.511,51.511,0,0,1-3.74-19.72c0-20.91,10.2-41.99,34.34-41.99,13.26,0,18.19,10.03,18.19,18.02C2604.74-39.27,2557.82-45.05,2555.95-22.95Zm246.33-23.97C2800.75-21.42,2782.39.17,2754,.17c-66.47,0-66.64-123.08,0-123.08a41.248,41.248,0,0,1,35.87,20.06c3.74,6.12-4.76,10.37-4.76,15.64a5.478,5.478,0,0,0,5.44,5.44,5.3,5.3,0,0,0,5.27-5.27c0-18.7-18.19-37.23-41.82-37.23-80.92,0-80.92,125.8,0,125.8,29.24,0,47.94-22.27,49.64-48.45Zm77.18,48.45c80.92,0,80.92-125.8.17-125.8C2798.71-124.27,2798.71,1.53,2879.46,1.53Zm.17-1.36c-66.47-.17-66.64-123.08,0-123.08S2946.27.17,2879.63.17Zm74.97-4.25a5.115,5.115,0,0,0-5.1-5.1,5.229,5.229,0,0,0-5.1,5.1,5.114,5.114,0,0,0,5.1,5.1A5.009,5.009,0,0,0,2954.6-4.08Zm95.03-57.46V-9.69c0,5.1-3.4,8.5-8.5,8.5h-8.16V0h41.65V-1.19h-7.99c-5.1,0-8.5-3.4-8.5-8.5V-60.52c0-32.3-54.57-35.7-63.41,0v-25.5l-23.46,6.29.34,1.19,6.46-1.87c4.93-1.19,8.16,1.19,8.16,6.29V-9.69c0,5.1-3.4,8.5-8.5,8.5h-7.99V0h41.65V-1.19h-8.16c-5.1,0-8.5-3.4-8.5-8.5V-50.15C2994.72-91.63,3049.63-95.2,3049.63-61.54Zm110.5,0V-9.69c0,5.1-3.4,8.5-8.5,8.5h-8.16V0h41.65V-1.19h-7.99c-5.1,0-8.5-3.4-8.5-8.5V-60.52c0-32.3-54.57-35.7-63.41,0v-25.5l-23.46,6.29.34,1.19,6.46-1.87c4.93-1.19,8.16,1.19,8.16,6.29V-9.69c0,5.1-3.4,8.5-8.5,8.5h-7.99V0h41.65V-1.19h-8.16c-5.1,0-8.5-3.4-8.5-8.5V-50.15C3105.22-91.63,3160.13-95.2,3160.13-61.54Zm73.27-24.48c-27.2,0-41.48,21.76-41.48,43.52S3206.2,1.02,3233.4,1.02c17.85,0,35.02-13.6,35.02-33.83h-1.19A32.072,32.072,0,0,1,3235.61-.85c-14.62,0-24.65-8.84-30.09-20.74h.68c0-23.12,56.1-18.87,56.1-44.54C3262.3-74.8,3253.29-86.02,3233.4-86.02Zm-28.39,63.07a51.511,51.511,0,0,1-3.74-19.72c0-20.91,10.2-41.99,34.34-41.99,13.26,0,18.19,10.03,18.19,18.02C3253.8-39.27,3206.88-45.05,3205.01-22.95Zm117.81-63.07c-55.42,0-55.42,87.04,0,87.04,17.85,0,35.02-13.6,35.02-33.83h-1.19A32.072,32.072,0,0,1,3325.03-.85c-44.88,0-46.07-83.98-2.21-83.98,11.73,0,21.93,5.78,26.86,15.3,4.59,8.67-3.74,11.9-3.74,16.83a4.718,4.718,0,0,0,4.59,4.76,4.752,4.752,0,0,0,4.76-4.76C3355.29-72.08,3341.52-86.02,3322.82-86.02Zm58.99,15.98v57.97c0,18.36,31.79,18.53,37.23-6.8l-1.19-.17c-5.1,20.06-27.54,23.29-27.54,6.97V-83.81h23.46V-85h-23.46v-21.93h-1.7c0,18.19-9.69,21.93-16.49,21.93v1.19h9.69Z" transform="translate(-1 244)" fill="#101010"/>
  </g>
</svg>
