<svg xmlns="http://www.w3.org/2000/svg" xmlns:xlink="http://www.w3.org/1999/xlink" width="175" height="2469" viewBox="0 0 175 2469">
  <defs>
    <clipPath id="clip-path">
      <rect id="長方形_89" data-name="長方形 89" width="2469" height="175" transform="translate(0 110)" fill="#fff"/>
    </clipPath>
  </defs>
  <g id="matsushita_text_101010" transform="translate(285) rotate(90)" clip-path="url(#clip-path)">
    <path id="パス_28" data-name="パス 28" d="M18.36-9.86c0,5.1-3.4,8.5-8.5,8.5H1.7V0H36.21V-1.36H28.22c-5.1,0-8.5-3.4-8.5-8.5v-103.7c0,.17.17.34.34.51L67.15-36.21l-5.78,9.86c-22.78,39.44,45.9,36.72,19.04-6.8l-6.8-11.22,43.69-75.14V-9.86c0,5.1-3.4,8.5-8.5,8.5h-7.99V0h42.84V-1.36h-8.16c-5.1,0-8.5-3.4-8.5-8.5V-112.54c0-5.1,3.4-8.5,8.5-8.5h8.16v-1.36H117.3L72.76-45.73,25.5-122.4H1.7v1.36H9.86c2.55,0,5.95,2.38,8.33,5.61ZM63.07-26.35,68-34.85l6.46,10.37C94.18,7.65,43.01,8.16,63.07-26.35ZM228.14-12.07V-60.52c0-16.66-15.64-25.5-30.43-25.5-21.25,0-30.94,8.5-30.94,15.81,0,5.1,5.1,9.69,14.45,9.69,7.14,0,16.32-2.89,21.25-2.89,1.87,0,3.06.51,3.06,1.87,0,6.8-53.72,15.13-53.72,41.31,0,13.77,11.9,21.25,25.33,21.25,16.49,0,36.89-11.56,36.89-36.55h-1.19c0,22.61-17.85,34.51-31.62,34.51-10.71,0-20.06-6.97-20.06-21.76,0-30.43,52.19-30.09,52.19-39.78,0-2.38-1.87-3.23-4.76-3.23-6.46,0-17.51,3.74-25.67,3.74a8.029,8.029,0,0,1-8.33-8.33c0-6.46,6.29-14.45,21.25-14.45,11.56,0,23.8,7.48,23.8,23.29v49.47c0,18.36,23.12,18.53,25.16-6.8l-1.19-.17C241.91,1.02,228.14,2.55,228.14-12.07Zm32.98-57.97v57.97c0,18.36,31.79,18.53,37.23-6.8l-1.19-.17c-5.1,20.06-27.54,23.29-27.54,6.97V-83.81h23.46V-85H269.62v-21.93h-1.7c0,18.19-9.69,21.93-16.49,21.93v1.19h9.69Zm85-15.98c-46.75,0-44.71,48.62-.68,37.91,37.06-8.84,41.14,47.6,1.19,47.6-19.04,0-31.28-10.54-31.28-18.7,0-7.14,7.31-4.93,7.31-11.73a4.648,4.648,0,0,0-4.76-4.76c-4.93,0-5.44,6.8-5.44,10.54,0,16.66,15.98,26.18,34,26.18,51.51,0,49.64-62.22-1.02-50.32-34.85,8.33-30.26-35.19.68-35.19,13.26,0,26.18,6.8,26.18,13.6,0,2.89-3.91,4.59-3.91,8.33a4.718,4.718,0,0,0,4.76,4.59,4.571,4.571,0,0,0,4.59-4.59C377.74-75.65,363.12-86.02,346.12-86.02Zm71.23,62.56V-86.02l-23.63,6.29.34,1.19,6.46-1.87c4.93-1.19,8.33,1.19,8.33,6.29v49.64c0,32.3,54.4,35.7,63.24,0V1.02l23.46-6.29-.34-1.19-6.46,1.87c-4.93,1.19-8.16-1.19-8.16-6.29V-86.02l-23.63,6.29.34,1.19,6.46-1.87c4.93-1.19,8.33,1.19,8.33,6.29v39.27C472.09,6.63,417.35,10.2,417.35-23.46ZM540.94-86.02c-46.75,0-44.71,48.62-.68,37.91,37.06-8.84,41.14,47.6,1.19,47.6-19.04,0-31.28-10.54-31.28-18.7,0-7.14,7.31-4.93,7.31-11.73a4.648,4.648,0,0,0-4.76-4.76c-4.93,0-5.44,6.8-5.44,10.54,0,16.66,15.98,26.18,34,26.18,51.51,0,49.64-62.22-1.02-50.32-34.85,8.33-30.26-35.19.68-35.19,13.26,0,26.18,6.8,26.18,13.6,0,2.89-3.91,4.59-3.91,8.33a4.718,4.718,0,0,0,4.76,4.59,4.571,4.571,0,0,0,4.59-4.59C572.56-75.65,557.94-86.02,540.94-86.02ZM666.57-61.54V-9.69c0,5.1-3.4,8.5-8.5,8.5h-8.16V0h41.65V-1.19h-7.99c-5.1,0-8.5-3.4-8.5-8.5V-60.52c0-32.3-54.57-35.7-63.41,0v-63.75l-23.46,6.29.34,1.19,6.46-1.7c4.93-1.36,8.16,1.19,8.16,6.29V-9.69c0,5.1-3.4,8.5-8.5,8.5h-7.99V0h41.65V-1.19h-8.16c-5.1,0-8.5-3.4-8.5-8.5V-50.15C611.66-91.63,666.57-95.2,666.57-61.54Zm56.27-45.22a4.9,4.9,0,0,0-4.93-4.76,4.865,4.865,0,0,0-4.76,4.76,4.9,4.9,0,0,0,4.76,4.93A4.934,4.934,0,0,0,722.84-106.76ZM713.66-9.69c0,5.1-3.4,8.5-8.5,8.5h-7.99V0h41.65V-1.19h-8.16c-5.1,0-8.5-3.4-8.5-8.5V-86.02L698.7-79.73l.34,1.19,6.46-1.87c4.93-1.19,8.16,1.19,8.16,6.29Zm43.18-60.35v57.97c0,18.36,31.79,18.53,37.23-6.8l-1.19-.17c-5.1,20.06-27.54,23.29-27.54,6.97V-83.81H788.8V-85H765.34v-21.93h-1.7c0,18.19-9.69,21.93-16.49,21.93v1.19h9.69ZM883.32-12.07V-60.52c0-16.66-15.64-25.5-30.43-25.5-21.25,0-30.94,8.5-30.94,15.81,0,5.1,5.1,9.69,14.45,9.69,7.14,0,16.32-2.89,21.25-2.89,1.87,0,3.06.51,3.06,1.87,0,6.8-53.72,15.13-53.72,41.31,0,13.77,11.9,21.25,25.33,21.25,16.49,0,36.89-11.56,36.89-36.55h-1.19c0,22.61-17.85,34.51-31.62,34.51-10.71,0-20.06-6.97-20.06-21.76,0-30.43,52.19-30.09,52.19-39.78,0-2.38-1.87-3.23-4.76-3.23-6.46,0-17.51,3.74-25.67,3.74a8.029,8.029,0,0,1-8.33-8.33c0-6.46,6.29-14.45,21.25-14.45,11.56,0,23.8,7.48,23.8,23.29v49.47c0,18.36,23.12,18.53,25.16-6.8l-1.19-.17C897.09,1.02,883.32,2.55,883.32-12.07ZM980.9-9.86c0,5.1-3.4,8.5-8.5,8.5h-8.16V0h34.51V-1.36h-7.99c-5.1,0-8.5-3.4-8.5-8.5v-103.7c0,.17.17.34.34.51l47.09,76.84-5.78,9.86c-22.78,39.44,45.9,36.72,19.04-6.8l-6.8-11.22,43.69-75.14V-9.86c0,5.1-3.4,8.5-8.5,8.5h-7.99V0h42.84V-1.36h-8.16c-5.1,0-8.5-3.4-8.5-8.5V-112.54c0-5.1,3.4-8.5,8.5-8.5h8.16v-1.36h-26.35L1035.3-45.73,988.04-122.4h-23.8v1.36h8.16c2.55,0,5.95,2.38,8.33,5.61Zm44.71-16.49,4.93-8.5L1037-24.48C1056.72,7.65,1005.55,8.16,1025.61-26.35Zm131.58-59.67c-27.2,0-41.48,21.76-41.48,43.52s14.28,43.52,41.48,43.52c17.85,0,35.02-13.6,35.02-33.83h-1.19A32.072,32.072,0,0,1,1159.4-.85c-14.62,0-24.65-8.84-30.09-20.74h.68c0-23.12,56.1-18.87,56.1-44.54C1186.09-74.8,1177.08-86.02,1157.19-86.02ZM1128.8-22.95a51.513,51.513,0,0,1-3.74-19.72c0-20.91,10.2-41.99,34.34-41.99,13.26,0,18.19,10.03,18.19,18.02C1177.59-39.27,1130.67-45.05,1128.8-22.95Zm145.69-38.59V-9.69c0,5.1-3.4,8.5-8.5,8.5h-8.16V0h41.65V-1.19h-7.99c-5.1,0-8.5-3.4-8.5-8.5V-50.15c0-41.48,49.64-44.54,49.64-11.39V-9.69c0,5.1-3.4,8.5-8.5,8.5h-8.16V0h41.65V-1.19h-7.99c-5.1,0-8.5-3.4-8.5-8.5V-60.52c0-32.13-49.81-35.7-58.14-.34-.34-31.79-49.81-35.19-58.31,0V-86.02l-23.46,6.29.34,1.19,6.46-1.87c4.93-1.19,8.16,1.19,8.16,6.29V-9.69c0,5.1-3.4,8.5-8.5,8.5h-7.99V0h41.65V-1.19h-8.16c-5.1,0-8.5-3.4-8.5-8.5V-50.15C1224.68-91.63,1274.49-94.69,1274.49-61.54ZM1408.28-.17c-46.07,0-46.07-84.66,0-84.66S1454.35-.17,1408.28-.17Zm0,1.19c58.48,0,58.48-87.04,0-87.04S1349.8,1.02,1408.28,1.02Zm71.4-10.71c0,5.1-3.4,8.5-8.5,8.5h-7.99V0h41.65V-1.19h-8.16c-5.1,0-8.5-3.4-8.5-8.5V-50.15c0-17.34,9.69-28.22,20.91-32.3,8.84-3.23,7.31,5.78,13.09,5.78,6.29,0,6.29-9.35,0-9.35-14.45,0-29.58,8.16-34,25.5v-25.5l-23.46,6.29.34,1.19,6.46-1.87c4.93-1.19,8.16,1.19,8.16,6.29Zm86.19-97.07a4.9,4.9,0,0,0-4.93-4.76,4.865,4.865,0,0,0-4.76,4.76,4.9,4.9,0,0,0,4.76,4.93A4.934,4.934,0,0,0,1565.87-106.76Zm-9.18,97.07c0,5.1-3.4,8.5-8.5,8.5h-7.99V0h41.65V-1.19h-8.16c-5.1,0-8.5-3.4-8.5-8.5V-86.02l-23.46,6.29.34,1.19,6.46-1.87c4.93-1.19,8.16,1.19,8.16,6.29Zm110.5-2.38V-60.52c0-16.66-15.64-25.5-30.43-25.5-21.25,0-30.94,8.5-30.94,15.81,0,5.1,5.1,9.69,14.45,9.69,7.14,0,16.32-2.89,21.25-2.89,1.87,0,3.06.51,3.06,1.87,0,6.8-53.72,15.13-53.72,41.31,0,13.77,11.9,21.25,25.33,21.25,16.49,0,36.89-11.56,36.89-36.55h-1.19c0,22.61-17.85,34.51-31.62,34.51-10.71,0-20.06-6.97-20.06-21.76,0-30.43,52.19-30.09,52.19-39.78,0-2.38-1.87-3.23-4.76-3.23-6.46,0-17.51,3.74-25.67,3.74a8.029,8.029,0,0,1-8.33-8.33c0-6.46,6.29-14.45,21.25-14.45,11.56,0,23.8,7.48,23.8,23.29v49.47c0,18.36,23.12,18.53,25.16-6.8l-1.19-.17C1680.96,1.02,1667.19,2.55,1667.19-12.07Zm40.12,2.38c0,5.1-3.4,8.5-8.5,8.5h-7.99V0h41.65V-1.19h-8.16c-5.1,0-8.5-3.4-8.5-8.5V-124.27l-23.46,6.29.34,1.19,6.46-1.7c4.93-1.36,8.16,1.19,8.16,6.29Zm100.13-.17c0,5.1-3.4,8.5-8.5,8.5h-7.99V0h42.84V-1.36h-8.16c-5.1,0-8.5-3.4-8.5-8.5V-72.59c0-3.91,5.1-6.97,9.86-6.97,11.05,0,25.16,16.66,50.49,16.66,4.76,0,8.16-2.21,9.86-4.93V-9.86c0,5.1-3.4,8.5-8.5,8.5h-7.99V0h42.84V-1.36h-8.16c-5.1,0-8.5-3.4-8.5-8.5V-112.54c0-5.1,3.4-8.5,8.5-8.5h8.16v-1.36h-42.84v1.36h7.99c5.1,0,8.5,3.4,8.5,8.5v40.63c0,2.89-3.4,7.65-9.86,7.65-11.39,0-25.33-16.66-50.49-16.66a13.378,13.378,0,0,0-9.86,4.42v-36.04c0-5.1,3.4-8.5,8.5-8.5h8.16v-1.36h-42.84v1.36h7.99c5.1,0,8.5,3.4,8.5,8.5ZM1963.67-.17c-46.07,0-46.07-84.66,0-84.66S2009.74-.17,1963.67-.17Zm0,1.19c58.48,0,58.48-87.04,0-87.04S1905.19,1.02,1963.67,1.02Zm96.39-87.04c-46.75,0-44.71,48.62-.68,37.91,37.06-8.84,41.14,47.6,1.19,47.6-19.04,0-31.28-10.54-31.28-18.7,0-7.14,7.31-4.93,7.31-11.73a4.648,4.648,0,0,0-4.76-4.76c-4.93,0-5.44,6.8-5.44,10.54,0,16.66,15.98,26.18,34,26.18,51.51,0,49.64-62.22-1.02-50.32-34.85,8.33-30.26-35.19.68-35.19,13.26,0,26.18,6.8,26.18,13.6,0,2.89-3.91,4.59-3.91,8.33a4.718,4.718,0,0,0,4.76,4.59,4.571,4.571,0,0,0,4.59-4.59C2091.68-75.65,2077.06-86.02,2060.06-86.02Zm106.59,0c-14.96,0-29.24,9.69-33.49,24.82V-86.02l-23.46,6.29.34,1.19,6.46-1.87c4.93-1.19,8.16,1.19,8.16,6.29V28.56c0,5.1-3.4,8.5-8.5,8.5h-7.99v1.19h41.65V37.06h-8.16c-5.1,0-8.5-3.4-8.5-8.5V-22.95c4.08,14.11,18.36,23.97,33.32,23.97C2221.05,1.02,2221.05-86.02,2166.65-86.02ZM2164.44-.85c-16.66,0-31.28-13.94-31.28-31.96V-52.19c0-18.02,14.62-31.96,31.28-31.96C2209.15-84.15,2209.15-.85,2164.44-.85Zm80.41-105.91a4.9,4.9,0,0,0-4.93-4.76,4.865,4.865,0,0,0-4.76,4.76,4.9,4.9,0,0,0,4.76,4.93A4.934,4.934,0,0,0,2244.85-106.76Zm-9.18,97.07c0,5.1-3.4,8.5-8.5,8.5h-7.99V0h41.65V-1.19h-8.16c-5.1,0-8.5-3.4-8.5-8.5V-86.02l-23.46,6.29.34,1.19,6.46-1.87c4.93-1.19,8.16,1.19,8.16,6.29Zm44.03-60.35v57.97c0,18.36,31.79,18.53,37.23-6.8l-1.19-.17c-5.1,20.06-27.54,23.29-27.54,6.97V-83.81h23.46V-85H2288.2v-21.93h-1.7c0,18.19-9.69,21.93-16.49,21.93v1.19h9.69Zm124.78,57.97V-60.52c0-16.66-15.64-25.5-30.43-25.5-21.25,0-30.94,8.5-30.94,15.81,0,5.1,5.1,9.69,14.45,9.69,7.14,0,16.32-2.89,21.25-2.89,1.87,0,3.06.51,3.06,1.87,0,6.8-53.72,15.13-53.72,41.31,0,13.77,11.9,21.25,25.33,21.25,16.49,0,36.89-11.56,36.89-36.55h-1.19c0,22.61-17.85,34.51-31.62,34.51-10.71,0-20.06-6.97-20.06-21.76,0-30.43,52.19-30.09,52.19-39.78,0-2.38-1.87-3.23-4.76-3.23-6.46,0-17.51,3.74-25.67,3.74a8.029,8.029,0,0,1-8.33-8.33c0-6.46,6.29-14.45,21.25-14.45,11.56,0,23.8,7.48,23.8,23.29v49.47c0,18.36,23.12,18.53,25.16-6.8l-1.19-.17C2418.25,1.02,2404.48,2.55,2404.48-12.07Zm40.12,2.38c0,5.1-3.4,8.5-8.5,8.5h-7.99V0h41.65V-1.19h-8.16c-5.1,0-8.5-3.4-8.5-8.5V-124.27l-23.46,6.29.34,1.19,6.46-1.7c4.93-1.36,8.16,1.19,8.16,6.29Z" transform="translate(-2 235)" fill="#101010"/>
  </g>
</svg>
