<svg xmlns="http://www.w3.org/2000/svg" xmlns:xlink="http://www.w3.org/1999/xlink" width="592" height="126" viewBox="0 0 592 126"><defs><clipPath id="a"><rect width="592" height="126" transform="translate(386 3041)" fill="#fff"/></clipPath><linearGradient id="b" x1="0.415" x2="0.5" y2="1" gradientUnits="objectBoundingBox"><stop offset="0" stop-color="#5a5a5a"/><stop offset="1" stop-color="#404040"/></linearGradient><filter id="c" x="-5.63" y="-0.9" width="603.837" height="138.93" filterUnits="userSpaceOnUse"><feOffset dy="5" input="SourceAlpha"/><feGaussianBlur stdDeviation="2.5" result="d"/><feFlood flood-color="#121212" flood-opacity="0.302"/><feComposite operator="in" in2="d"/><feComposite in="SourceGraphic"/></filter></defs><g transform="translate(-386 -3041)" clip-path="url(#a)"><g transform="matrix(1, 0, 0, 1, 386, 3041)" filter="url(#c)"><path d="M28.05-37.4v-83.64H46.92c21.59,0,29.07,9.69,29.07,20.23,0,26.18-41.82,21.25-41.82,30.94,0,2.21,1.53,2.89,3.91,2.89,5.27,0,14.96-3.4,24.65-3.4,44.37,0,41.14,70.55-1.7,70.55C40.46.17,28.05-20.06,28.05-37.4ZM18.36-9.86c0,5.1-3.4,8.5-8.5,8.5H1.87V0H28.05V-27.03C31.96-12.24,43.52,1.53,61.03,1.53c55.93,0,61.37-73.27,1.7-73.27-7.82,0-14.28,1.87-17.51,1.87-1.36,0-2.04-.34-2.04-1.36,0-7.65,43.52-7.99,43.52-29.41,0-11.22-10.2-21.76-38.08-21.76H1.87v1.36H9.86c5.1,0,8.5,3.4,8.5,8.5Zm176.63-2.21V-60.52c0-16.66-15.64-25.5-30.43-25.5-21.25,0-30.94,8.5-30.94,15.81,0,5.1,5.1,9.69,14.45,9.69,7.14,0,16.32-2.89,21.25-2.89,1.87,0,3.06.51,3.06,1.87,0,6.8-53.72,15.13-53.72,41.31,0,13.77,11.9,21.25,25.33,21.25,16.49,0,36.89-11.56,36.89-36.55h-1.19c0,22.61-17.85,34.51-31.62,34.51-10.71,0-20.06-6.97-20.06-21.76,0-30.43,52.19-30.09,52.19-39.78,0-2.38-1.87-3.23-4.76-3.23-6.46,0-17.51,3.74-25.67,3.74a8.029,8.029,0,0,1-8.33-8.33c0-6.46,6.29-14.45,21.25-14.45,11.56,0,23.8,7.48,23.8,23.29v49.47c0,18.36,23.12,18.53,25.16-6.8l-1.19-.17C208.76,1.02,194.99,2.55,194.99-12.07ZM298.86-61.54V-9.69c0,5.1-3.4,8.5-8.5,8.5H282.2V0h41.65V-1.19h-7.99c-5.1,0-8.5-3.4-8.5-8.5V-60.52c0-32.3-54.57-35.7-63.41,0v-25.5l-23.46,6.29.34,1.19,6.46-1.87c4.93-1.19,8.16,1.19,8.16,6.29V-9.69c0,5.1-3.4,8.5-8.5,8.5h-7.99V0h41.65V-1.19h-8.16c-5.1,0-8.5-3.4-8.5-8.5V-50.15C243.95-91.63,298.86-95.2,298.86-61.54Zm111.35,0V-9.69c0,5.1-3.4,8.5-8.5,8.5h-8.16V0H435.2V-1.19h-7.99c-5.1,0-8.5-3.4-8.5-8.5V-60.52c0-32.3-54.57-35.7-63.41,0v-25.5l-23.46,6.29.34,1.19,6.46-1.87c4.93-1.19,8.16,1.19,8.16,6.29V-9.69c0,5.1-3.4,8.5-8.5,8.5h-7.99V0h41.65V-1.19H363.8c-5.1,0-8.5-3.4-8.5-8.5V-50.15C355.3-91.63,410.21-95.2,410.21-61.54Zm71.57-24.48c-27.2,0-41.48,21.76-41.48,43.52S454.58,1.02,481.78,1.02c17.85,0,35.02-13.6,35.02-33.83h-1.19A32.072,32.072,0,0,1,483.99-.85c-14.62,0-24.65-8.84-30.09-20.74h.68c0-23.12,56.1-18.87,56.1-44.54C510.68-74.8,501.67-86.02,481.78-86.02ZM453.39-22.95a51.511,51.511,0,0,1-3.74-19.72c0-20.91,10.2-41.99,34.34-41.99,13.26,0,18.19,10.03,18.19,18.02C502.18-39.27,455.26-45.05,453.39-22.95Zm90.1,13.26c0,5.1-3.4,8.5-8.5,8.5H527V0h41.65V-1.19h-8.16c-5.1,0-8.5-3.4-8.5-8.5V-50.15c0-17.34,9.69-28.22,20.91-32.3,8.84-3.23,7.31,5.78,13.09,5.78,6.29,0,6.29-9.35,0-9.35-14.45,0-29.58,8.16-34,25.5v-25.5l-23.46,6.29.34,1.19,6.46-1.87c4.93-1.19,8.16,1.19,8.16,6.29Z" transform="translate(0 124)" fill="url(#b)"/></g></g></svg>