<svg xmlns="http://www.w3.org/2000/svg" xmlns:xlink="http://www.w3.org/1999/xlink" width="175" height="2638" viewBox="0 0 175 2638">
  <defs>
    <clipPath id="clip-path">
      <rect id="長方形_94" data-name="長方形 94" width="2638" height="175" transform="translate(0 110)" fill="#fff"/>
    </clipPath>
  </defs>
  <g id="oshikatsu_text_2c2c2c" transform="translate(285) rotate(90)" clip-path="url(#clip-path)">
    <path id="パス_33" data-name="パス 33" d="M49.64-124.27c-62.05,0-58.99,71.23.51,55.76C96.39-80.41,103.7.17,50.15.17,29.07.17,16.49-9.69,11.22-21.59c-4.42-10.2,6.97-10.2,6.97-18.87a5.3,5.3,0,0,0-5.27-5.27c-5.61,0-6.29,6.46-6.29,10.54,0,17.17,13.94,36.72,43.52,36.72,64.94,0,63.24-87.04,0-71.4C1.87-57.8,5.1-122.91,49.64-122.91c15.98,0,25.16,6.29,29.75,14.28,4.08,6.97-5.27,8.84-5.27,15.13a5.37,5.37,0,0,0,5.44,5.44,5.335,5.335,0,0,0,5.27-5.44C84.83-106.93,76.33-124.27,49.64-124.27ZM132.09-23.46V-86.02l-23.63,6.29.34,1.19,6.46-1.87c4.93-1.19,8.33,1.19,8.33,6.29v49.64c0,32.3,54.4,35.7,63.24,0V1.02l23.46-6.29-.34-1.19-6.46,1.87c-4.93,1.19-8.16-1.19-8.16-6.29V-86.02L171.7-79.73l.34,1.19,6.46-1.87c4.93-1.19,8.33,1.19,8.33,6.29v39.27C186.83,6.63,132.09,10.2,132.09-23.46ZM260.1-14.28c44.54,0,53.04-46.92,25.67-64.77a19.663,19.663,0,0,1-6.63-15.81c.34-5.78,5.78-5.95,8.16-5.78,6.29.34,6.8-9.01.68-9.35-5.78-.34-9.69,10.71-9.86,15.13a20.936,20.936,0,0,0,4.08,13.77,47.71,47.71,0,0,0-22.1-4.93c-51.85,0-54.91,63.58-9.18,71.06-16.15,1.7-22.44,8.33-22.44,13.77,0,4.08,3.57,7.48,9.35,7.48,3.74,0,7.82-1.02,12.24-2.21a13.773,13.773,0,0,0-3.06,9.01c0,7.82,5.95,16.15,19.04,16.15,12.75,0,27.37-8.67,27.37-25.5,0-7.48-5.44-13.94-15.64-13.94-14.45,0-29.75,9.01-40.97,9.01-2.89,0-4.59-1.36-4.59-3.06C232.22-7.99,240.55-14.28,260.1-14.28Zm0-1.19c-42.67,0-42.67-69.36,0-69.36S302.77-15.47,260.1-15.47ZM252.11,3.4c8.33-2.55,17.17-5.95,25.16-5.95,8.67,0,13.09,4.59,13.09,10.2,0,13.09-12.92,20.4-24.31,20.4-12.24,0-17.85-7.99-17.85-15.3A12.434,12.434,0,0,1,252.11,3.4ZM361.76-.17c-46.07,0-46.07-84.66,0-84.66S407.83-.17,361.76-.17Zm0,1.19c58.48,0,58.48-87.04,0-87.04S303.28,1.02,361.76,1.02ZM493.34-55.59c2.38-4.42,4.25-9.86,4.25-14.79s-1.53-17.17-10.03-17.17a4.718,4.718,0,0,0-4.59,4.76,4.571,4.571,0,0,0,4.59,4.59c6.29,0,8.5,2.89,8.5,7.82a32.464,32.464,0,0,1-3.74,14.28L449.99,26.52c-5.95,11.56-17.68,8.67-17.85-.68-.17-16.15,30.09-21.08,30.09-32.47,0-6.12-3.23-13.26-6.12-20.06L435.03-75.31a9.078,9.078,0,0,1-.85-3.4c0-3.06,2.04-5.1,5.95-5.1h7.99V-85h-42.5v1.19h8.16c5.1,0,9.86,3.91,11.9,8.5l27.03,62.22c1.87,4.25,3.23,7.48,3.23,10.2,0,10.2-32.47,13.94-32.3,29.41.17,13.09,19.21,16.83,27.54.34ZM551.48-.17c-46.07,0-46.07-84.66,0-84.66S597.55-.17,551.48-.17Zm0,1.19c58.48,0,58.48-87.04,0-87.04S493,1.02,551.48,1.02Zm95.54-87.04c-46.75,0-44.71,48.62-.68,37.91,37.06-8.84,41.14,47.6,1.19,47.6-19.04,0-31.28-10.54-31.28-18.7,0-7.14,7.31-4.93,7.31-11.73a4.648,4.648,0,0,0-4.76-4.76c-4.93,0-5.44,6.8-5.44,10.54,0,16.66,15.98,26.18,34,26.18,51.51,0,49.64-62.22-1.02-50.32-34.85,8.33-30.26-35.19.68-35.19,13.26,0,26.18,6.8,26.18,13.6,0,2.89-3.91,4.59-3.91,8.33a4.718,4.718,0,0,0,4.76,4.59,4.571,4.571,0,0,0,4.59-4.59C678.64-75.65,664.02-86.02,647.02-86.02Zm96.56,0c-27.2,0-41.48,21.76-41.48,43.52S716.38,1.02,743.58,1.02c17.85,0,35.02-13.6,35.02-33.83h-1.19A32.072,32.072,0,0,1,745.79-.85c-14.62,0-24.65-8.84-30.09-20.74h.68c0-23.12,56.1-18.87,56.1-44.54C772.48-74.8,763.47-86.02,743.58-86.02ZM715.19-22.95a51.512,51.512,0,0,1-3.74-19.72c0-20.91,10.2-41.99,34.34-41.99,13.26,0,18.19,10.03,18.19,18.02C763.98-39.27,717.06-45.05,715.19-22.95ZM914.77,1.53c80.92,0,80.92-125.8.17-125.8C834.02-124.27,834.02,1.53,914.77,1.53Zm.17-1.36c-66.47-.17-66.64-123.08,0-123.08S981.58.17,914.94.17Zm114.41-86.19c-46.75,0-44.71,48.62-.68,37.91,37.06-8.84,41.14,47.6,1.19,47.6-19.04,0-31.28-10.54-31.28-18.7,0-7.14,7.31-4.93,7.31-11.73a4.648,4.648,0,0,0-4.76-4.76c-4.93,0-5.44,6.8-5.44,10.54,0,16.66,15.98,26.18,34,26.18,51.51,0,49.64-62.22-1.02-50.32-34.85,8.33-30.26-35.19.68-35.19,13.26,0,26.18,6.8,26.18,13.6,0,2.89-3.91,4.59-3.91,8.33a4.718,4.718,0,0,0,4.76,4.59,4.571,4.571,0,0,0,4.59-4.59C1060.97-75.65,1046.35-86.02,1029.35-86.02Zm129.03,24.48V-9.69c0,5.1-3.4,8.5-8.5,8.5h-8.16V0h41.65V-1.19h-7.99c-5.1,0-8.5-3.4-8.5-8.5V-60.52c0-32.3-54.57-35.7-63.41,0v-63.75l-23.46,6.29.34,1.19,6.46-1.7c4.93-1.36,8.16,1.19,8.16,6.29V-9.69c0,5.1-3.4,8.5-8.5,8.5h-7.99V0h41.65V-1.19h-8.16c-5.1,0-8.5-3.4-8.5-8.5V-50.15C1103.47-91.63,1158.38-95.2,1158.38-61.54Zm60.52-45.22a4.9,4.9,0,0,0-4.93-4.76,4.865,4.865,0,0,0-4.76,4.76,4.9,4.9,0,0,0,4.76,4.93A4.934,4.934,0,0,0,1218.9-106.76Zm-9.18,97.07c0,5.1-3.4,8.5-8.5,8.5h-7.99V0h41.65V-1.19h-8.16c-5.1,0-8.5-3.4-8.5-8.5V-86.02l-23.46,6.29.34,1.19,6.46-1.87c4.93-1.19,8.16,1.19,8.16,6.29Zm53.04,0c0,5.1-3.4,8.5-8.5,8.5h-7.99V0h41.65V-1.19h-8.16c-5.1,0-8.5-3.4-8.5-8.5V-124.27l-23.46,6.29.34,1.19,6.46-1.7c4.93-1.36,8.16,1.19,8.16,6.29ZM1318.69,0h26.69V-1.19h-8.16c-6.8,0-10.54-2.21-14.96-8.5L1297.95-44.2c-8.67-12.24-22.44-4.76-22.44-9.01,0-1.53,1.19-2.55,3.4-4.25l26.69-18.7c6.46-4.42,12.07-7.65,18.87-7.65h8.16V-85h-34.51v1.19h6.97c3.23,0,3.4,4.25-1.53,7.65l-25.67,18.19c-2.04,1.36-3.57,2.72-3.57,4.76,0,4.93,7.48.85,15.81,12.58Zm107.44-12.07V-60.52c0-16.66-15.64-25.5-30.43-25.5-21.25,0-30.94,8.5-30.94,15.81,0,5.1,5.1,9.69,14.45,9.69,7.14,0,16.32-2.89,21.25-2.89,1.87,0,3.06.51,3.06,1.87,0,6.8-53.72,15.13-53.72,41.31,0,13.77,11.9,21.25,25.33,21.25,16.49,0,36.89-11.56,36.89-36.55h-1.19c0,22.61-17.85,34.51-31.62,34.51-10.71,0-20.06-6.97-20.06-21.76,0-30.43,52.19-30.09,52.19-39.78,0-2.38-1.87-3.23-4.76-3.23-6.46,0-17.51,3.74-25.67,3.74a8.029,8.029,0,0,1-8.33-8.33c0-6.46,6.29-14.45,21.25-14.45,11.56,0,23.8,7.48,23.8,23.29v49.47c0,18.36,23.12,18.53,25.16-6.8l-1.19-.17C1439.9,1.02,1426.13,2.55,1426.13-12.07Zm35.53-57.97v57.97c0,18.36,31.79,18.53,37.23-6.8l-1.19-.17c-5.1,20.06-27.54,23.29-27.54,6.97V-83.81h23.46V-85h-23.46v-21.93h-1.7c0,18.19-9.69,21.93-16.49,21.93v1.19h9.69Zm87.55-15.98c-46.75,0-44.71,48.62-.68,37.91,37.06-8.84,41.14,47.6,1.19,47.6-19.04,0-31.28-10.54-31.28-18.7,0-7.14,7.31-4.93,7.31-11.73a4.648,4.648,0,0,0-4.76-4.76c-4.93,0-5.44,6.8-5.44,10.54,0,16.66,15.98,26.18,34,26.18,51.51,0,49.64-62.22-1.02-50.32-34.85,8.33-30.26-35.19.68-35.19,13.26,0,26.18,6.8,26.18,13.6,0,2.89-3.91,4.59-3.91,8.33a4.718,4.718,0,0,0,4.76,4.59,4.571,4.571,0,0,0,4.59-4.59C1580.83-75.65,1566.21-86.02,1549.21-86.02Zm74.63,62.56V-86.02l-23.63,6.29.34,1.19,6.46-1.87c4.93-1.19,8.33,1.19,8.33,6.29v49.64c0,32.3,54.4,35.7,63.24,0V1.02l23.46-6.29-.34-1.19-6.46,1.87c-4.93,1.19-8.16-1.19-8.16-6.29V-86.02l-23.63,6.29.34,1.19,6.46-1.87c4.93-1.19,8.33,1.19,8.33,6.29v39.27C1678.58,6.63,1623.84,10.2,1623.84-23.46Zm260.95-23.46C1883.26-21.42,1864.9.17,1836.51.17c-66.47,0-66.64-123.08,0-123.08a41.249,41.249,0,0,1,35.87,20.06c3.74,6.12-4.76,10.37-4.76,15.64a5.478,5.478,0,0,0,5.44,5.44,5.3,5.3,0,0,0,5.27-5.27c0-18.7-18.19-37.23-41.82-37.23-80.92,0-80.92,125.8,0,125.8,29.24,0,47.94-22.27,49.64-48.45Zm91.8,34.85V-60.52c0-16.66-15.64-25.5-30.43-25.5-21.25,0-30.94,8.5-30.94,15.81,0,5.1,5.1,9.69,14.45,9.69,7.14,0,16.32-2.89,21.25-2.89,1.87,0,3.06.51,3.06,1.87,0,6.8-53.72,15.13-53.72,41.31,0,13.77,11.9,21.25,25.33,21.25,16.49,0,36.89-11.56,36.89-36.55h-1.19c0,22.61-17.85,34.51-31.62,34.51-10.71,0-20.06-6.97-20.06-21.76,0-30.43,52.19-30.09,52.19-39.78,0-2.38-1.87-3.23-4.76-3.23-6.46,0-17.51,3.74-25.67,3.74a8.029,8.029,0,0,1-8.33-8.33c0-6.46,6.29-14.45,21.25-14.45,11.56,0,23.8,7.48,23.8,23.29v49.47c0,18.36,23.12,18.53,25.16-6.8l-1.19-.17C1990.36,1.02,1976.59,2.55,1976.59-12.07Zm101.15-49.47V-9.69c0,5.1-3.4,8.5-8.5,8.5h-8.16V0h41.65V-1.19h-7.99c-5.1,0-8.5-3.4-8.5-8.5V-50.15c0-41.48,49.64-44.54,49.64-11.39V-9.69c0,5.1-3.4,8.5-8.5,8.5h-8.16V0h41.65V-1.19h-7.99c-5.1,0-8.5-3.4-8.5-8.5V-60.52c0-32.13-49.81-35.7-58.14-.34-.34-31.79-49.81-35.19-58.31,0V-86.02l-23.46,6.29.34,1.19,6.46-1.87c4.93-1.19,8.16,1.19,8.16,6.29V-9.69c0,5.1-3.4,8.5-8.5,8.5h-7.99V0h41.65V-1.19h-8.16c-5.1,0-8.5-3.4-8.5-8.5V-50.15C2027.93-91.63,2077.74-94.69,2077.74-61.54Zm145.18-24.48c-14.96,0-29.24,9.69-33.49,24.82V-86.02l-23.46,6.29.34,1.19,6.46-1.87c4.93-1.19,8.16,1.19,8.16,6.29V28.56c0,5.1-3.4,8.5-8.5,8.5h-7.99v1.19h41.65V37.06h-8.16c-5.1,0-8.5-3.4-8.5-8.5V-22.95c4.08,14.11,18.36,23.97,33.32,23.97C2277.32,1.02,2277.32-86.02,2222.92-86.02ZM2220.71-.85c-16.66,0-31.28-13.94-31.28-31.96V-52.19c0-18.02,14.62-31.96,31.28-31.96C2265.42-84.15,2265.42-.85,2220.71-.85Zm134.98-11.22V-60.52c0-16.66-15.64-25.5-30.43-25.5-21.25,0-30.94,8.5-30.94,15.81,0,5.1,5.1,9.69,14.45,9.69,7.14,0,16.32-2.89,21.25-2.89,1.87,0,3.06.51,3.06,1.87,0,6.8-53.72,15.13-53.72,41.31,0,13.77,11.9,21.25,25.33,21.25,16.49,0,36.89-11.56,36.89-36.55h-1.19c0,22.61-17.85,34.51-31.62,34.51-10.71,0-20.06-6.97-20.06-21.76,0-30.43,52.19-30.09,52.19-39.78,0-2.38-1.87-3.23-4.76-3.23-6.46,0-17.51,3.74-25.67,3.74a8.029,8.029,0,0,1-8.33-8.33c0-6.46,6.29-14.45,21.25-14.45,11.56,0,23.8,7.48,23.8,23.29v49.47c0,18.36,23.12,18.53,25.16-6.8l-1.19-.17C2369.46,1.02,2355.69,2.55,2355.69-12.07Zm52.87-94.69a4.9,4.9,0,0,0-4.93-4.76,4.865,4.865,0,0,0-4.76,4.76,4.9,4.9,0,0,0,4.76,4.93A4.934,4.934,0,0,0,2408.56-106.76Zm-9.18,97.07c0,5.1-3.4,8.5-8.5,8.5h-7.99V0h41.65V-1.19h-8.16c-5.1,0-8.5-3.4-8.5-8.5V-86.02l-23.46,6.29.34,1.19,6.46-1.87c4.93-1.19,8.16,1.19,8.16,6.29Zm79.9-4.59c44.54,0,53.04-46.92,25.67-64.77a19.663,19.663,0,0,1-6.63-15.81c.34-5.78,5.78-5.95,8.16-5.78,6.29.34,6.8-9.01.68-9.35-5.78-.34-9.69,10.71-9.86,15.13a20.936,20.936,0,0,0,4.08,13.77,47.71,47.71,0,0,0-22.1-4.93c-51.85,0-54.91,63.58-9.18,71.06-16.15,1.7-22.44,8.33-22.44,13.77,0,4.08,3.57,7.48,9.35,7.48,3.74,0,7.82-1.02,12.24-2.21a13.773,13.773,0,0,0-3.06,9.01c0,7.82,5.95,16.15,19.04,16.15,12.75,0,27.37-8.67,27.37-25.5,0-7.48-5.44-13.94-15.64-13.94-14.45,0-29.75,9.01-40.97,9.01-2.89,0-4.59-1.36-4.59-3.06C2451.4-7.99,2459.73-14.28,2479.28-14.28Zm0-1.19c-42.67,0-42.67-69.36,0-69.36S2521.95-15.47,2479.28-15.47ZM2471.29,3.4c8.33-2.55,17.17-5.95,25.16-5.95,8.67,0,13.09,4.59,13.09,10.2,0,13.09-12.92,20.4-24.31,20.4-12.24,0-17.85-7.99-17.85-15.3A12.434,12.434,0,0,1,2471.29,3.4Zm142.8-64.94V-9.69c0,5.1-3.4,8.5-8.5,8.5h-8.16V0h41.65V-1.19h-7.99c-5.1,0-8.5-3.4-8.5-8.5V-60.52c0-32.3-54.57-35.7-63.41,0v-25.5l-23.46,6.29.34,1.19,6.46-1.87c4.93-1.19,8.16,1.19,8.16,6.29V-9.69c0,5.1-3.4,8.5-8.5,8.5h-7.99V0h41.65V-1.19h-8.16c-5.1,0-8.5-3.4-8.5-8.5V-50.15C2559.18-91.63,2614.09-95.2,2614.09-61.54Z" transform="translate(-3 235)" fill="#2c2c2c"/>
  </g>
</svg>
