<svg xmlns="http://www.w3.org/2000/svg" xmlns:xlink="http://www.w3.org/1999/xlink" width="1154" height="164" viewBox="0 0 1154 164"><defs><clipPath id="a"><rect width="1154" height="164" transform="translate(-68 2352)" fill="#fff"/></clipPath></defs><g transform="translate(68 -2352)" clip-path="url(#a)"><path d="M115.07-46.92C113.54-21.42,95.18.17,66.79.17.32.17.15-122.91,66.79-122.91a41.249,41.249,0,0,1,35.87,20.06c3.74,6.12-4.76,10.37-4.76,15.64a5.478,5.478,0,0,0,5.44,5.44,5.3,5.3,0,0,0,5.27-5.27c0-18.7-18.19-37.23-41.82-37.23-80.92,0-80.92,125.8,0,125.8,29.24,0,47.94-22.27,49.64-48.45ZM176.61-.17c-46.07,0-46.07-84.66,0-84.66S222.68-.17,176.61-.17Zm0,1.19c58.48,0,58.48-87.04,0-87.04S118.13,1.02,176.61,1.02ZM305.47-61.54V-9.69c0,5.1-3.4,8.5-8.5,8.5h-8.16V0h41.65V-1.19h-7.99c-5.1,0-8.5-3.4-8.5-8.5V-50.15c0-41.48,49.64-44.54,49.64-11.39V-9.69c0,5.1-3.4,8.5-8.5,8.5h-8.16V0H388.6V-1.19h-7.99c-5.1,0-8.5-3.4-8.5-8.5V-60.52c0-32.13-49.81-35.7-58.14-.34-.34-31.79-49.81-35.19-58.31,0V-86.02L232.2-79.73l.34,1.19L239-80.41c4.93-1.19,8.16,1.19,8.16,6.29V-9.69c0,5.1-3.4,8.5-8.5,8.5h-7.99V0h41.65V-1.19h-8.16c-5.1,0-8.5-3.4-8.5-8.5V-50.15C255.66-91.63,305.47-94.69,305.47-61.54ZM452.4-86.02c-14.96,0-29.24,9.69-33.49,24.82V-86.02l-23.46,6.29.34,1.19,6.46-1.87c4.93-1.19,8.16,1.19,8.16,6.29V28.56c0,5.1-3.4,8.5-8.5,8.5h-7.99v1.19h41.65V37.06h-8.16c-5.1,0-8.5-3.4-8.5-8.5V-22.95c4.08,14.11,18.36,23.97,33.32,23.97C506.8,1.02,506.8-86.02,452.4-86.02ZM450.19-.85c-16.66,0-31.28-13.94-31.28-31.96V-52.19c0-18.02,14.62-31.96,31.28-31.96C494.9-84.15,494.9-.85,450.19-.85ZM550.32-86.02c-27.2,0-41.48,21.76-41.48,43.52S523.12,1.02,550.32,1.02c17.85,0,35.02-13.6,35.02-33.83h-1.19A32.072,32.072,0,0,1,552.53-.85c-14.62,0-24.65-8.84-30.09-20.74h.68c0-23.12,56.1-18.87,56.1-44.54C579.22-74.8,570.21-86.02,550.32-86.02ZM521.93-22.95a51.512,51.512,0,0,1-3.74-19.72c0-20.91,10.2-41.99,34.34-41.99,13.26,0,18.19,10.03,18.19,18.02C570.72-39.27,523.8-45.05,521.93-22.95Zm86.02-47.09v57.97c0,18.36,31.79,18.53,37.23-6.8l-1.19-.17c-5.1,20.06-27.54,23.29-27.54,6.97V-83.81h23.46V-85H616.45v-21.93h-1.7c0,18.19-9.69,21.93-16.49,21.93v1.19h9.69Zm74.63-36.72a4.9,4.9,0,0,0-4.93-4.76,4.865,4.865,0,0,0-4.76,4.76,4.9,4.9,0,0,0,4.76,4.93A4.934,4.934,0,0,0,682.58-106.76ZM673.4-9.69c0,5.1-3.4,8.5-8.5,8.5h-7.99V0h41.65V-1.19H690.4c-5.1,0-8.5-3.4-8.5-8.5V-86.02l-23.46,6.29.34,1.19,6.46-1.87c4.93-1.19,8.16,1.19,8.16,6.29Zm46.58-60.35v57.97c0,18.36,31.79,18.53,37.23-6.8l-1.19-.17c-5.1,20.06-27.54,23.29-27.54,6.97V-83.81h23.46V-85H728.48v-21.93h-1.7c0,18.19-9.69,21.93-16.49,21.93v1.19h9.69Zm74.63-36.72a4.9,4.9,0,0,0-4.93-4.76,4.865,4.865,0,0,0-4.76,4.76,4.9,4.9,0,0,0,4.76,4.93A4.934,4.934,0,0,0,794.61-106.76ZM785.43-9.69c0,5.1-3.4,8.5-8.5,8.5h-7.99V0h41.65V-1.19h-8.16c-5.1,0-8.5-3.4-8.5-8.5V-86.02l-23.46,6.29.34,1.19,6.46-1.87c4.93-1.19,8.16,1.19,8.16,6.29ZM864.48-.17c-46.07,0-46.07-84.66,0-84.66S910.55-.17,864.48-.17Zm0,1.19c58.48,0,58.48-87.04,0-87.04S806,1.02,864.48,1.02ZM996.74-61.54V-9.69c0,5.1-3.4,8.5-8.5,8.5h-8.16V0h41.65V-1.19h-7.99c-5.1,0-8.5-3.4-8.5-8.5V-60.52c0-32.3-54.57-35.7-63.41,0v-25.5l-23.46,6.29.34,1.19,6.46-1.87c4.93-1.19,8.16,1.19,8.16,6.29V-9.69c0,5.1-3.4,8.5-8.5,8.5h-7.99V0h41.65V-1.19h-8.16c-5.1,0-8.5-3.4-8.5-8.5V-50.15C941.83-91.63,996.74-95.2,996.74-61.54Z" transform="translate(-5 2477)" fill="#101010"/></g></svg>