<svg xmlns="http://www.w3.org/2000/svg" xmlns:xlink="http://www.w3.org/1999/xlink" width="630" height="322" viewBox="0 0 630 322">
  <defs>
    <clipPath id="clip-path">
      <rect id="長方形_43" data-name="長方形 43" width="630" height="322" transform="translate(0 2352)" fill="#fff"/>
    </clipPath>
  </defs>
  <g id="Competition" transform="translate(0 -2352)" clip-path="url(#clip-path)">
    <path id="パス_4" data-name="パス 4" d="M115.07-46.92C113.54-21.42,95.18.17,66.79.17.32.17.15-122.91,66.79-122.91a41.249,41.249,0,0,1,35.87,20.06c3.74,6.12-4.76,10.37-4.76,15.64a5.478,5.478,0,0,0,5.44,5.44,5.3,5.3,0,0,0,5.27-5.27c0-18.7-18.19-37.23-41.82-37.23-80.92,0-80.92,125.8,0,125.8,29.24,0,47.94-22.27,49.64-48.45ZM176.61-.17c-46.07,0-46.07-84.66,0-84.66S222.68-.17,176.61-.17Zm0,1.19c58.48,0,58.48-87.04,0-87.04S118.13,1.02,176.61,1.02ZM305.47-61.54V-9.69c0,5.1-3.4,8.5-8.5,8.5h-8.16V0h41.65V-1.19h-7.99c-5.1,0-8.5-3.4-8.5-8.5V-50.15c0-41.48,49.64-44.54,49.64-11.39V-9.69c0,5.1-3.4,8.5-8.5,8.5h-8.16V0H388.6V-1.19h-7.99c-5.1,0-8.5-3.4-8.5-8.5V-60.52c0-32.13-49.81-35.7-58.14-.34-.34-31.79-49.81-35.19-58.31,0V-86.02L232.2-79.73l.34,1.19L239-80.41c4.93-1.19,8.16,1.19,8.16,6.29V-9.69c0,5.1-3.4,8.5-8.5,8.5h-7.99V0h41.65V-1.19h-8.16c-5.1,0-8.5-3.4-8.5-8.5V-50.15C255.66-91.63,305.47-94.69,305.47-61.54ZM64.4,70.98c-14.96,0-29.24,9.69-33.49,24.82V70.98L7.45,77.27l.34,1.19,6.46-1.87c4.93-1.19,8.16,1.19,8.16,6.29V185.56c0,5.1-3.4,8.5-8.5,8.5H5.92v1.19H47.57v-1.19H39.41c-5.1,0-8.5-3.4-8.5-8.5V134.05c4.08,14.11,18.36,23.97,33.32,23.97C118.8,158.02,118.8,70.98,64.4,70.98Zm-2.21,85.17c-16.66,0-31.28-13.94-31.28-31.96V104.81c0-18.02,14.62-31.96,31.28-31.96C106.9,72.85,106.9,156.15,62.19,156.15ZM162.32,70.98c-27.2,0-41.48,21.76-41.48,43.52s14.28,43.52,41.48,43.52c17.85,0,35.02-13.6,35.02-33.83h-1.19a32.072,32.072,0,0,1-31.62,31.96c-14.62,0-24.65-8.84-30.09-20.74h.68c0-23.12,56.1-18.87,56.1-44.54C191.22,82.2,182.21,70.98,162.32,70.98Zm-28.39,63.07a51.512,51.512,0,0,1-3.74-19.72c0-20.91,10.2-41.99,34.34-41.99,13.26,0,18.19,10.03,18.19,18.02C182.72,117.73,135.8,111.95,133.93,134.05Zm86.02-47.09v57.97c0,18.36,31.79,18.53,37.23-6.8l-1.19-.17c-5.1,20.06-27.54,23.29-27.54,6.97V73.19h23.46V72H228.45V50.07h-1.7c0,18.19-9.69,21.93-16.49,21.93v1.19h9.69Zm74.63-36.72a4.846,4.846,0,1,0-4.93,4.93A4.9,4.9,0,0,0,294.58,50.24Zm-9.18,97.07c0,5.1-3.4,8.5-8.5,8.5h-7.99V157h41.65v-1.19H302.4c-5.1,0-8.5-3.4-8.5-8.5V70.98l-23.46,6.29.34,1.19,6.46-1.87c4.93-1.19,8.16,1.19,8.16,6.29Zm46.58-60.35v57.97c0,18.36,31.79,18.53,37.23-6.8l-1.19-.17c-5.1,20.06-27.54,23.29-27.54,6.97V73.19h23.46V72H340.48V50.07h-1.7c0,18.19-9.69,21.93-16.49,21.93v1.19h9.69Zm74.63-36.72a4.846,4.846,0,1,0-4.93,4.93A4.9,4.9,0,0,0,406.61,50.24Zm-9.18,97.07c0,5.1-3.4,8.5-8.5,8.5h-7.99V157h41.65v-1.19h-8.16c-5.1,0-8.5-3.4-8.5-8.5V70.98l-23.46,6.29.34,1.19,6.46-1.87c4.93-1.19,8.16,1.19,8.16,6.29Zm79.05,9.52c-46.07,0-46.07-84.66,0-84.66S522.55,156.83,476.48,156.83Zm0,1.19c58.48,0,58.48-87.04,0-87.04S418,158.02,476.48,158.02ZM608.74,95.46v51.85c0,5.1-3.4,8.5-8.5,8.5h-8.16V157h41.65v-1.19h-7.99c-5.1,0-8.5-3.4-8.5-8.5V96.48c0-32.3-54.57-35.7-63.41,0V70.98l-23.46,6.29.34,1.19,6.46-1.87c4.93-1.19,8.16,1.19,8.16,6.29v64.43c0,5.1-3.4,8.5-8.5,8.5h-7.99V157h41.65v-1.19h-8.16c-5.1,0-8.5-3.4-8.5-8.5V106.85C553.83,65.37,608.74,61.8,608.74,95.46Z" transform="translate(-5 2477)" fill="#101010"/>
    <path id="パス_54" data-name="パス 54" d="M-209.23-46.83h-36v2h36Z" transform="translate(652.23 2479.83)" fill="#101010"/>
  </g>
</svg>
