<svg xmlns="http://www.w3.org/2000/svg" xmlns:xlink="http://www.w3.org/1999/xlink" width="175" height="3362" viewBox="0 0 175 3362">
  <defs>
    <clipPath id="clip-path">
      <rect id="長方形_90" data-name="長方形 90" width="3362" height="175" transform="translate(0 119)" fill="#fff"/>
    </clipPath>
  </defs>
  <g id="sugoyose_text_2c2c2c" transform="translate(294) rotate(90)" clip-path="url(#clip-path)">
    <path id="パス_29" data-name="パス 29" d="M51.85-9.86c0,5.1-3.4,8.5-8.5,8.5H35.36V0H78.2V-1.36H70.04c-5.1,0-8.5-3.4-8.5-8.5V-121.04H94.35c5.1,0,9.69,3.74,11.73,8.33l4.25,9.69,1.19-.51-7.48-18.87H9.18L1.7-103.53l1.19.51,4.25-9.69c2.04-4.59,6.63-8.33,11.73-8.33H51.85Zm147.9-51.68V-9.69c0,5.1-3.4,8.5-8.5,8.5h-8.16V0h41.65V-1.19h-7.99c-5.1,0-8.5-3.4-8.5-8.5V-60.52c0-32.3-54.57-35.7-63.41,0v-63.75l-23.46,6.29.34,1.19,6.46-1.7c4.93-1.36,8.16,1.19,8.16,6.29V-9.69c0,5.1-3.4,8.5-8.5,8.5h-7.99V0H161.5V-1.19h-8.16c-5.1,0-8.5-3.4-8.5-8.5V-50.15C144.84-91.63,199.75-95.2,199.75-61.54Zm79.22-24.48c-27.2,0-41.48,21.76-41.48,43.52S251.77,1.02,278.97,1.02c17.85,0,35.02-13.6,35.02-33.83H312.8A32.072,32.072,0,0,1,281.18-.85c-14.62,0-24.65-8.84-30.09-20.74h.68c0-23.12,56.1-18.87,56.1-44.54C307.87-74.8,298.86-86.02,278.97-86.02ZM250.58-22.95a51.511,51.511,0,0,1-3.74-19.72c0-20.91,10.2-41.99,34.34-41.99,13.26,0,18.19,10.03,18.19,18.02C299.37-39.27,252.45-45.05,250.58-22.95ZM427.72-.17c-46.07,0-46.07-84.66,0-84.66S473.79-.17,427.72-.17Zm0,1.19c58.48,0,58.48-87.04,0-87.04S369.24,1.02,427.72,1.02ZM562.53-61.54V-9.69c0,5.1-3.4,8.5-8.5,8.5h-8.16V0h41.65V-1.19h-7.99c-5.1,0-8.5-3.4-8.5-8.5V-60.52c0-32.3-54.57-35.7-63.41,0v-25.5l-23.46,6.29.34,1.19,6.46-1.87c4.93-1.19,8.16,1.19,8.16,6.29V-9.69c0,5.1-3.4,8.5-8.5,8.5h-7.99V0h41.65V-1.19h-8.16c-5.1,0-8.5-3.4-8.5-8.5V-50.15C507.62-91.63,562.53-95.2,562.53-61.54ZM614.72-9.69c0,5.1-3.4,8.5-8.5,8.5h-7.99V0h41.65V-1.19h-8.16c-5.1,0-8.5-3.4-8.5-8.5V-124.27l-23.46,6.29.34,1.19,6.46-1.7c4.93-1.36,8.16,1.19,8.16,6.29Zm61.37-97.07a4.9,4.9,0,0,0-4.93-4.76,4.865,4.865,0,0,0-4.76,4.76,4.9,4.9,0,0,0,4.76,4.93A4.934,4.934,0,0,0,676.09-106.76ZM666.91-9.69c0,5.1-3.4,8.5-8.5,8.5h-7.99V0h41.65V-1.19h-8.16c-5.1,0-8.5-3.4-8.5-8.5V-86.02l-23.46,6.29.34,1.19,6.46-1.87c4.93-1.19,8.16,1.19,8.16,6.29Zm115.6-51.85V-9.69c0,5.1-3.4,8.5-8.5,8.5h-8.16V0H807.5V-1.19h-7.99c-5.1,0-8.5-3.4-8.5-8.5V-60.52c0-32.3-54.57-35.7-63.41,0v-25.5l-23.46,6.29.34,1.19,6.46-1.87c4.93-1.19,8.16,1.19,8.16,6.29V-9.69c0,5.1-3.4,8.5-8.5,8.5h-7.99V0h41.65V-1.19H736.1c-5.1,0-8.5-3.4-8.5-8.5V-50.15C727.6-91.63,782.51-95.2,782.51-61.54Zm77.52-24.48c-27.2,0-41.48,21.76-41.48,43.52S832.83,1.02,860.03,1.02c17.85,0,35.02-13.6,35.02-33.83h-1.19A32.072,32.072,0,0,1,862.24-.85c-14.62,0-24.65-8.84-30.09-20.74h.68c0-23.12,56.1-18.87,56.1-44.54C888.93-74.8,879.92-86.02,860.03-86.02ZM831.64-22.95a51.512,51.512,0,0,1-3.74-19.72c0-20.91,10.2-41.99,34.34-41.99,13.26,0,18.19,10.03,18.19,18.02C880.43-39.27,833.51-45.05,831.64-22.95Zm177.99,8.67c44.54,0,53.04-46.92,25.67-64.77a19.663,19.663,0,0,1-6.63-15.81c.34-5.78,5.78-5.95,8.16-5.78,6.29.34,6.8-9.01.68-9.35-5.78-.34-9.69,10.71-9.86,15.13a20.935,20.935,0,0,0,4.08,13.77,47.71,47.71,0,0,0-22.1-4.93c-51.85,0-54.91,63.58-9.18,71.06-16.15,1.7-22.44,8.33-22.44,13.77,0,4.08,3.57,7.48,9.35,7.48,3.74,0,7.82-1.02,12.24-2.21a13.773,13.773,0,0,0-3.06,9.01c0,7.82,5.95,16.15,19.04,16.15,12.75,0,27.37-8.67,27.37-25.5,0-7.48-5.44-13.94-15.64-13.94-14.45,0-29.75,9.01-40.97,9.01-2.89,0-4.59-1.36-4.59-3.06C981.75-7.99,990.08-14.28,1009.63-14.28Zm0-1.19c-42.67,0-42.67-69.36,0-69.36S1052.3-15.47,1009.63-15.47ZM1001.64,3.4c8.33-2.55,17.17-5.95,25.16-5.95,8.67,0,13.09,4.59,13.09,10.2,0,13.09-12.92,20.4-24.31,20.4-12.24,0-17.85-7.99-17.85-15.3A12.434,12.434,0,0,1,1001.64,3.4Zm84.15-26.86V-86.02l-23.63,6.29.34,1.19,6.46-1.87c4.93-1.19,8.33,1.19,8.33,6.29v49.64c0,32.3,54.4,35.7,63.24,0V1.02l23.46-6.29-.34-1.19-6.46,1.87c-4.93,1.19-8.16-1.19-8.16-6.29V-86.02l-23.63,6.29.34,1.19,6.46-1.87c4.93-1.19,8.33,1.19,8.33,6.29v39.27C1140.53,6.63,1085.79,10.2,1085.79-23.46Zm132.43-62.56c-27.2,0-41.48,21.76-41.48,43.52s14.28,43.52,41.48,43.52c17.85,0,35.02-13.6,35.02-33.83h-1.19A32.072,32.072,0,0,1,1220.43-.85c-14.62,0-24.65-8.84-30.09-20.74h.68c0-23.12,56.1-18.87,56.1-44.54C1247.12-74.8,1238.11-86.02,1218.22-86.02Zm-28.39,63.07a51.513,51.513,0,0,1-3.74-19.72c0-20.91,10.2-41.99,34.34-41.99,13.26,0,18.19,10.03,18.19,18.02C1238.62-39.27,1191.7-45.05,1189.83-22.95Zm115.43-63.07c-46.75,0-44.71,48.62-.68,37.91,37.06-8.84,41.14,47.6,1.19,47.6-19.04,0-31.28-10.54-31.28-18.7,0-7.14,7.31-4.93,7.31-11.73a4.648,4.648,0,0,0-4.76-4.76c-4.93,0-5.44,6.8-5.44,10.54,0,16.66,15.98,26.18,34,26.18,51.51,0,49.64-62.22-1.02-50.32-34.85,8.33-30.26-35.19.68-35.19,13.26,0,26.18,6.8,26.18,13.6,0,2.89-3.91,4.59-3.91,8.33a4.718,4.718,0,0,0,4.76,4.59,4.571,4.571,0,0,0,4.59-4.59C1336.88-75.65,1322.26-86.02,1305.26-86.02Zm66.13,15.98v57.97c0,18.36,31.79,18.53,37.23-6.8l-1.19-.17c-5.1,20.06-27.54,23.29-27.54,6.97V-83.81h23.46V-85h-23.46v-21.93h-1.7c0,18.19-9.69,21.93-16.49,21.93v1.19h9.69Zm107.78-15.98c-14.96,0-29.24,9.69-33.49,24.82v-63.07l-23.46,6.29.34,1.19,6.46-1.7c4.93-1.36,8.16,1.19,8.16,6.29V-9.69c0,5.1-3.4,8.5-8.5,8.5h-7.99V0h24.99V-24.14c4.08,15.3,18.36,25.16,33.32,25.16C1533.57,1.02,1533.57-86.02,1479.17-86.02ZM1476.96-.85c-16.66,0-31.28-13.94-31.28-31.96V-52.19c0-18.02,14.62-31.96,31.28-31.96C1521.67-84.15,1521.67-.85,1476.96-.85Zm103.36.68c-46.07,0-46.07-84.66,0-84.66S1626.39-.17,1580.32-.17Zm0,1.19c58.48,0,58.48-87.04,0-87.04S1521.84,1.02,1580.32,1.02ZM1684.7-.17c-46.07,0-46.07-84.66,0-84.66S1730.77-.17,1684.7-.17Zm0,1.19c58.48,0,58.48-87.04,0-87.04S1626.22,1.02,1684.7,1.02Zm71.4-10.71c0,5.1-3.4,8.5-8.5,8.5h-7.99V0h41.65V-1.19h-8.16c-5.1,0-8.5-3.4-8.5-8.5V-124.27l-23.46,6.29.34,1.19,6.46-1.7c4.93-1.36,8.16,1.19,8.16,6.29ZM1812.03,0h26.69V-1.19h-8.16c-6.8,0-10.54-2.21-14.96-8.5L1791.29-44.2c-8.67-12.24-22.44-4.76-22.44-9.01,0-1.53,1.19-2.55,3.4-4.25l26.69-18.7c6.46-4.42,12.07-7.65,18.87-7.65h8.16V-85h-34.51v1.19h6.97c3.23,0,3.4,4.25-1.53,7.65l-25.67,18.19c-2.04,1.36-3.57,2.72-3.57,4.76,0,4.93,7.48.85,15.81,12.58Zm131.75-86.02c-46.75,0-44.71,48.62-.68,37.91,37.06-8.84,41.14,47.6,1.19,47.6-19.04,0-31.28-10.54-31.28-18.7,0-7.14,7.31-4.93,7.31-11.73a4.648,4.648,0,0,0-4.76-4.76c-4.93,0-5.44,6.8-5.44,10.54,0,16.66,15.98,26.18,34,26.18,51.51,0,49.64-62.22-1.02-50.32-34.85,8.33-30.26-35.19.68-35.19,13.26,0,26.18,6.8,26.18,13.6,0,2.89-3.91,4.59-3.91,8.33a4.718,4.718,0,0,0,4.76,4.59,4.571,4.571,0,0,0,4.59-4.59C1975.4-75.65,1960.78-86.02,1943.78-86.02Zm97.41,0c-27.2,0-41.48,21.76-41.48,43.52s14.28,43.52,41.48,43.52c17.85,0,35.02-13.6,35.02-33.83h-1.19A32.072,32.072,0,0,1,2043.4-.85c-14.62,0-24.65-8.84-30.09-20.74h.68c0-23.12,56.1-18.87,56.1-44.54C2070.09-74.8,2061.08-86.02,2041.19-86.02ZM2012.8-22.95a51.513,51.513,0,0,1-3.74-19.72c0-20.91,10.2-41.99,34.34-41.99,13.26,0,18.19,10.03,18.19,18.02C2061.59-39.27,2014.67-45.05,2012.8-22.95Zm91.63,13.26c0,5.1-3.4,8.5-8.5,8.5h-7.99V0h41.65V-1.19h-8.16c-5.1,0-8.5-3.4-8.5-8.5V-50.15c0-17.34,9.69-28.22,20.91-32.3,8.84-3.23,7.31,5.78,13.09,5.78,6.29,0,6.29-9.35,0-9.35-14.45,0-29.58,8.16-34,25.5v-25.5l-23.46,6.29.34,1.19,6.46-1.87c4.93-1.19,8.16,1.19,8.16,6.29Zm86.53-65.62c-2.21-4.59,0-8.5,5.1-8.5h7.99V-85H2162.4v1.19h8.16c5.1,0,9.69,3.91,11.9,8.5L2216.12,0h8.5l-3.4-7.48,24.31-48.11c2.38-4.42,3.23-9.86,3.23-14.79s-2.21-17.17-9.01-17.17a4.718,4.718,0,0,0-4.59,4.76,4.571,4.571,0,0,0,4.59,4.59c6.29,0,7.82,2.89,7.82,7.82a31.775,31.775,0,0,1-3.06,14.28L2220.54-8.84Zm101.15-31.45a4.9,4.9,0,0,0-4.93-4.76,4.865,4.865,0,0,0-4.76,4.76,4.9,4.9,0,0,0,4.76,4.93A4.934,4.934,0,0,0,2292.11-106.76Zm-9.18,97.07c0,5.1-3.4,8.5-8.5,8.5h-7.99V0h41.65V-1.19h-8.16c-5.1,0-8.5-3.4-8.5-8.5V-86.02l-23.46,6.29.34,1.19,6.46-1.87c4.93-1.19,8.16,1.19,8.16,6.29Zm79.22-76.33c-55.42,0-55.42,87.04,0,87.04,17.85,0,35.02-13.6,35.02-33.83h-1.19A32.072,32.072,0,0,1,2364.36-.85c-44.88,0-46.07-83.98-2.21-83.98,11.73,0,21.93,5.78,26.86,15.3,4.59,8.67-3.74,11.9-3.74,16.83a4.718,4.718,0,0,0,4.59,4.76,4.752,4.752,0,0,0,4.76-4.76C2394.62-72.08,2380.85-86.02,2362.15-86.02Zm95.03,0c-27.2,0-41.48,21.76-41.48,43.52s14.28,43.52,41.48,43.52c17.85,0,35.02-13.6,35.02-33.83h-1.19A32.072,32.072,0,0,1,2459.39-.85c-14.62,0-24.65-8.84-30.09-20.74h.68c0-23.12,56.1-18.87,56.1-44.54C2486.08-74.8,2477.07-86.02,2457.18-86.02Zm-28.39,63.07a51.511,51.511,0,0,1-3.74-19.72c0-20.91,10.2-41.99,34.34-41.99,13.26,0,18.19,10.03,18.19,18.02C2477.58-39.27,2430.66-45.05,2428.79-22.95Zm180.2-101.32c-62.05,0-58.99,71.23.51,55.76,46.24-11.9,53.55,68.68,0,68.68-21.08,0-33.66-9.86-38.93-21.76-4.42-10.2,6.97-10.2,6.97-18.87a5.3,5.3,0,0,0-5.27-5.27c-5.61,0-6.29,6.46-6.29,10.54,0,17.17,13.94,36.72,43.52,36.72,64.94,0,63.24-87.04,0-71.4-48.28,12.07-45.05-53.04-.51-53.04,15.98,0,25.16,6.29,29.75,14.28,4.08,6.97-5.27,8.84-5.27,15.13a5.37,5.37,0,0,0,5.44,5.44,5.335,5.335,0,0,0,5.27-5.44C2644.18-106.93,2635.68-124.27,2608.99-124.27Zm85,100.81V-86.02l-23.63,6.29.34,1.19,6.46-1.87c4.93-1.19,8.33,1.19,8.33,6.29v49.64c0,32.3,54.4,35.7,63.24,0V1.02l23.46-6.29-.34-1.19-6.46,1.87c-4.93,1.19-8.16-1.19-8.16-6.29V-86.02l-23.63,6.29.34,1.19,6.46-1.87c4.93-1.19,8.33,1.19,8.33,6.29v39.27C2748.73,6.63,2693.99,10.2,2693.99-23.46Zm132.26,9.18c44.54,0,53.04-46.92,25.67-64.77a19.663,19.663,0,0,1-6.63-15.81c.34-5.78,5.78-5.95,8.16-5.78,6.29.34,6.8-9.01.68-9.35-5.78-.34-9.69,10.71-9.86,15.13a20.936,20.936,0,0,0,4.08,13.77,47.71,47.71,0,0,0-22.1-4.93c-51.85,0-54.91,63.58-9.18,71.06-16.15,1.7-22.44,8.33-22.44,13.77,0,4.08,3.57,7.48,9.35,7.48,3.74,0,7.82-1.02,12.24-2.21a13.773,13.773,0,0,0-3.06,9.01c0,7.82,5.95,16.15,19.04,16.15,12.75,0,27.37-8.67,27.37-25.5,0-7.48-5.44-13.94-15.64-13.94-14.45,0-29.75,9.01-40.97,9.01-2.89,0-4.59-1.36-4.59-3.06C2798.37-7.99,2806.7-14.28,2826.25-14.28Zm0-1.19c-42.67,0-42.67-69.36,0-69.36S2868.92-15.47,2826.25-15.47ZM2818.26,3.4c8.33-2.55,17.17-5.95,25.16-5.95,8.67,0,13.09,4.59,13.09,10.2,0,13.09-12.92,20.4-24.31,20.4-12.24,0-17.85-7.99-17.85-15.3A12.434,12.434,0,0,1,2818.26,3.4Zm112.2-3.57c-46.07,0-46.07-84.66,0-84.66S2976.53-.17,2930.46-.17Zm0,1.19c58.48,0,58.48-87.04,0-87.04S2871.98,1.02,2930.46,1.02Zm134.13-56.61c2.38-4.42,4.25-9.86,4.25-14.79s-1.53-17.17-10.03-17.17a4.718,4.718,0,0,0-4.59,4.76,4.571,4.571,0,0,0,4.59,4.59c6.29,0,8.5,2.89,8.5,7.82a32.464,32.464,0,0,1-3.74,14.28l-42.33,82.62c-5.95,11.56-17.68,8.67-17.85-.68-.17-16.15,30.09-21.08,30.09-32.47,0-6.12-3.23-13.26-6.12-20.06l-21.08-48.62a9.078,9.078,0,0,1-.85-3.4c0-3.06,2.04-5.1,5.95-5.1h7.99V-85h-42.5v1.19h8.16c5.1,0,9.86,3.91,11.9,8.5l27.03,62.22c1.87,4.25,3.23,7.48,3.23,10.2,0,10.2-32.47,13.94-32.3,29.41.17,13.09,19.21,16.83,27.54.34ZM3128.68-.17c-46.07,0-46.07-84.66,0-84.66S3174.75-.17,3128.68-.17Zm0,1.19c58.48,0,58.48-87.04,0-87.04S3070.2,1.02,3128.68,1.02Zm96.39-87.04c-46.75,0-44.71,48.62-.68,37.91,37.06-8.84,41.14,47.6,1.19,47.6-19.04,0-31.28-10.54-31.28-18.7,0-7.14,7.31-4.93,7.31-11.73a4.648,4.648,0,0,0-4.76-4.76c-4.93,0-5.44,6.8-5.44,10.54,0,16.66,15.98,26.18,34,26.18,51.51,0,49.64-62.22-1.02-50.32-34.85,8.33-30.26-35.19.68-35.19,13.26,0,26.18,6.8,26.18,13.6,0,2.89-3.91,4.59-3.91,8.33a4.718,4.718,0,0,0,4.76,4.59,4.571,4.571,0,0,0,4.59-4.59C3256.69-75.65,3242.07-86.02,3225.07-86.02Zm99.11,0c-27.2,0-41.48,21.76-41.48,43.52s14.28,43.52,41.48,43.52c17.85,0,35.02-13.6,35.02-33.83h-1.19A32.072,32.072,0,0,1,3326.39-.85c-14.62,0-24.65-8.84-30.09-20.74h.68c0-23.12,56.1-18.87,56.1-44.54C3353.08-74.8,3344.07-86.02,3324.18-86.02Zm-28.39,63.07a51.511,51.511,0,0,1-3.74-19.72c0-20.91,10.2-41.99,34.34-41.99,13.26,0,18.19,10.03,18.19,18.02C3344.58-39.27,3297.66-45.05,3295.79-22.95Z" transform="translate(-1 244)" fill="#2c2c2c"/>
  </g>
</svg>
