<svg xmlns="http://www.w3.org/2000/svg" xmlns:xlink="http://www.w3.org/1999/xlink" width="430" height="192" viewBox="0 0 430 192"><defs><clipPath id="a"><rect width="430" height="192" transform="translate(0 740)" fill="#fff"/></clipPath></defs><g transform="translate(0 -740)" clip-path="url(#a)"><path d="M5.46.13A4.551,4.551,0,0,1,3.64-.234,4.733,4.733,0,0,1,2.151-1.242,4.733,4.733,0,0,1,1.144-2.73,4.551,4.551,0,0,1,.78-4.55a4.551,4.551,0,0,1,.364-1.82A4.733,4.733,0,0,1,2.151-7.859,4.733,4.733,0,0,1,3.64-8.866,4.551,4.551,0,0,1,5.46-9.23a4.551,4.551,0,0,1,1.82.364A4.733,4.733,0,0,1,8.768-7.859,4.733,4.733,0,0,1,9.776-6.37a4.551,4.551,0,0,1,.364,1.82,4.551,4.551,0,0,1-.364,1.82A4.733,4.733,0,0,1,8.768-1.242,4.733,4.733,0,0,1,7.28-.234,4.551,4.551,0,0,1,5.46.13Zm0-.624A4,4,0,0,0,7.039-.806a4.052,4.052,0,0,0,1.293-.871A4.052,4.052,0,0,0,9.2-2.97,4,4,0,0,0,9.516-4.55,4,4,0,0,0,9.2-6.129a4.052,4.052,0,0,0-.871-1.293,4.052,4.052,0,0,0-1.293-.871A4,4,0,0,0,5.46-8.606a4,4,0,0,0-1.579.312,4.052,4.052,0,0,0-1.294.871,4.052,4.052,0,0,0-.871,1.293A4,4,0,0,0,1.4-4.55,4,4,0,0,0,1.716-2.97a4.052,4.052,0,0,0,.871,1.294,4.052,4.052,0,0,0,1.294.871A4,4,0,0,0,5.46-.494ZM5.434-1.508a2.586,2.586,0,0,1-1.4-.377,2.541,2.541,0,0,1-.942-1.066,3.588,3.588,0,0,1-.338-1.6,3.578,3.578,0,0,1,.338-1.606,2.594,2.594,0,0,1,.942-1.066,2.552,2.552,0,0,1,1.4-.384,2.509,2.509,0,0,1,2.21,1.2l-.507.377a1.9,1.9,0,0,0-1.7-.962,1.853,1.853,0,0,0-1.489.669A2.658,2.658,0,0,0,3.38-4.55a2.658,2.658,0,0,0,.566,1.774,1.853,1.853,0,0,0,1.489.669A1.933,1.933,0,0,0,7.1-3l.416.455A2.407,2.407,0,0,1,5.434-1.508ZM12.714,0V-.286a2.875,2.875,0,0,1,.292-1.267,5.852,5.852,0,0,1,.786-1.2q.494-.592,1.118-1.2.468-.468.877-.917a5.853,5.853,0,0,0,.683-.9,1.826,1.826,0,0,0,.286-.9,1.71,1.71,0,0,0-.423-1.326,1.71,1.71,0,0,0-1.254-.442,1.462,1.462,0,0,0-1.118.475,1.94,1.94,0,0,0-.442,1.371h-.754a3.016,3.016,0,0,1,.292-1.365,2.154,2.154,0,0,1,.819-.9,2.277,2.277,0,0,1,1.2-.318,2.451,2.451,0,0,1,1.794.663,2.37,2.37,0,0,1,.637,1.859A2.424,2.424,0,0,1,17.2-5.518a5.572,5.572,0,0,1-.76,1.046q-.462.507-.994,1.04-.455.455-.871.9a6.145,6.145,0,0,0-.7.9,2.329,2.329,0,0,0-.351.91h3.9V0Zm9.607.143A2.036,2.036,0,0,1,20.358-.988a8.188,8.188,0,0,1-.585-3.575,8.148,8.148,0,0,1,.585-3.562,2.036,2.036,0,0,1,1.963-1.131,2.02,2.02,0,0,1,1.963,1.131,8.313,8.313,0,0,1,.572,3.562,8.353,8.353,0,0,1-.572,3.575A2.02,2.02,0,0,1,22.321.143Zm0-.741a1.417,1.417,0,0,0,1.007-.371,2.356,2.356,0,0,0,.585-1.242A11.615,11.615,0,0,0,24.1-4.563,11.432,11.432,0,0,0,23.913-6.9a2.349,2.349,0,0,0-.585-1.235,1.417,1.417,0,0,0-1.007-.37,1.417,1.417,0,0,0-1.007.37A2.349,2.349,0,0,0,20.729-6.9a11.433,11.433,0,0,0-.188,2.333,11.615,11.615,0,0,0,.188,2.353,2.356,2.356,0,0,0,.585,1.242A1.417,1.417,0,0,0,22.321-.6Zm4.81.6V-.286a2.875,2.875,0,0,1,.293-1.267,5.852,5.852,0,0,1,.786-1.2q.494-.592,1.118-1.2.468-.468.878-.917a5.853,5.853,0,0,0,.682-.9,1.826,1.826,0,0,0,.286-.9,1.71,1.71,0,0,0-.423-1.326A1.71,1.71,0,0,0,29.5-8.437a1.462,1.462,0,0,0-1.118.475,1.94,1.94,0,0,0-.442,1.371h-.754a3.016,3.016,0,0,1,.292-1.365,2.154,2.154,0,0,1,.819-.9,2.277,2.277,0,0,1,1.2-.318,2.451,2.451,0,0,1,1.794.663,2.37,2.37,0,0,1,.637,1.859,2.424,2.424,0,0,1-.312,1.138,5.572,5.572,0,0,1-.76,1.046q-.462.507-.994,1.04-.455.455-.871.9a6.145,6.145,0,0,0-.7.9,2.329,2.329,0,0,0-.351.91h3.9V0Zm9.178.143A2.4,2.4,0,0,1,34.736-.39a2.727,2.727,0,0,1-.9-1.417l.715-.247a2.328,2.328,0,0,0,.591,1.021A1.531,1.531,0,0,0,36.3-.585a2,2,0,0,0,1.43-.481,1.863,1.863,0,0,0,.507-1.417A1.834,1.834,0,0,0,37.654-3.9a2.093,2.093,0,0,0-1.476-.533h-.39v-.728h.39a1.81,1.81,0,0,0,1.339-.481A1.705,1.705,0,0,0,38-6.9a1.6,1.6,0,0,0-.24-.923,1.4,1.4,0,0,0-.631-.514A2.141,2.141,0,0,0,36.3-8.5a1.368,1.368,0,0,0-.754.208A1.881,1.881,0,0,0,35-7.761a3.039,3.039,0,0,0-.351.689l-.7-.286a2.931,2.931,0,0,1,.969-1.41,2.267,2.267,0,0,1,1.4-.488,2.551,2.551,0,0,1,1.781.624,2.2,2.2,0,0,1,.689,1.716A2.247,2.247,0,0,1,38.4-5.629a2.195,2.195,0,0,1-1.014.819,2.382,2.382,0,0,1,1.17.871,2.426,2.426,0,0,1,.455,1.469,2.966,2.966,0,0,1-.292,1.333,2.18,2.18,0,0,1-.89.936A3.016,3.016,0,0,1,36.309.143ZM45.526,0V-9.1h.793l3.133,4.693L52.546-9.1h.819V0h-.819V-7.709L49.673-3.328h-.442l-2.9-4.381V0ZM57.733.117A2.319,2.319,0,0,1,56.257-.3a1.47,1.47,0,0,1-.566-1.248,1.578,1.578,0,0,1,.423-1.092,2.891,2.891,0,0,1,1.079-.734,3.579,3.579,0,0,1,1.359-.267,2.34,2.34,0,0,1,1.521.455V-4.251a1.364,1.364,0,0,0-.364-1.138,2.01,2.01,0,0,0-1.17-.266,4.114,4.114,0,0,0-1.157.188,4.148,4.148,0,0,0-1.079.475l-.377-.624a4.968,4.968,0,0,1,1.229-.546,4.723,4.723,0,0,1,1.384-.221,2.738,2.738,0,0,1,1.742.455,2.074,2.074,0,0,1,.559,1.677V-.806q0,.247.136.28a1.88,1.88,0,0,0,.6-.059v.559a2.141,2.141,0,0,1-.351.1,2.068,2.068,0,0,1-.416.045q-.442,0-.572-.182a1.4,1.4,0,0,1-.156-.689A2.364,2.364,0,0,1,59.02-.1,4.614,4.614,0,0,1,57.733.117ZM57.772-.6a3.873,3.873,0,0,0,1.163-.195,2.021,2.021,0,0,0,.858-.526,1.1,1.1,0,0,0,.292-.839.73.73,0,0,0-.442-.6,2.223,2.223,0,0,0-1.04-.188,2.947,2.947,0,0,0-1.027.182,2.085,2.085,0,0,0-.8.5,1.03,1.03,0,0,0-.306.735.776.776,0,0,0,.364.709A1.741,1.741,0,0,0,57.772-.6Zm6.344,3.406a3.54,3.54,0,0,1-.474-.033,3.026,3.026,0,0,1-.423-.084V1.95a3.086,3.086,0,0,0,.41.084,3.082,3.082,0,0,0,.435.033,1.03,1.03,0,0,0,.715-.214,2.022,2.022,0,0,0,.442-.747L65.637,0,63.193-6.227h.819L66-.988l1.911-5.239h.832L65.923,1.352a2.55,2.55,0,0,1-.689,1.105A1.677,1.677,0,0,1,64.116,2.808ZM72.826.143a2.115,2.115,0,0,1-1.6-.637,2.525,2.525,0,0,1-.611-1.82V-6.227h.78v3.809a1.906,1.906,0,0,0,.436,1.365A1.487,1.487,0,0,0,72.956-.6a1.741,1.741,0,0,0,1.287-.494A1.644,1.644,0,0,0,74.737-2.3V-6.227h.793V-.013h-.741l-.026-.871a2.263,2.263,0,0,1-.78.728A2.234,2.234,0,0,1,72.826.143ZM83.239,0V-8.346h-2.99V-9.1h6.8v.754h-2.99V0Zm7.67.143a2.847,2.847,0,0,1-1.5-.4,2.712,2.712,0,0,1-1.027-1.131,3.81,3.81,0,0,1-.37-1.735,3.708,3.708,0,0,1,.37-1.7A2.827,2.827,0,0,1,89.4-5.96a2.721,2.721,0,0,1,1.482-.41,2.407,2.407,0,0,1,1.437.422,2.741,2.741,0,0,1,.9,1.092,3.3,3.3,0,0,1,.312,1.411v.26H88.8a2.827,2.827,0,0,0,.552,1.891,1.9,1.9,0,0,0,1.567.721,1.979,1.979,0,0,0,1.222-.37,2.625,2.625,0,0,0,.806-1.1l.65.377A2.792,2.792,0,0,1,90.909.143Zm-2.054-4h3.9a2.319,2.319,0,0,0-.319-.923,1.983,1.983,0,0,0-.65-.663,1.673,1.673,0,0,0-.9-.247,1.914,1.914,0,0,0-1.333.487A2.3,2.3,0,0,0,88.855-3.861ZM96.083,0V-6.227h.754l.039,1.079a2.086,2.086,0,0,1,.826-.891,2.364,2.364,0,0,1,1.255-.344,3.6,3.6,0,0,1,.37.02,1.754,1.754,0,0,1,.319.058v.767q-.117-.026-.332-.052a3.616,3.616,0,0,0-.435-.026,2.022,2.022,0,0,0-1,.254,1.969,1.969,0,0,0-.721.676,1.753,1.753,0,0,0-.267.956V0Zm7.072.117A2.319,2.319,0,0,1,101.679-.3a1.471,1.471,0,0,1-.565-1.248,1.578,1.578,0,0,1,.423-1.092,2.891,2.891,0,0,1,1.079-.734,3.579,3.579,0,0,1,1.358-.267,2.34,2.34,0,0,1,1.521.455V-4.251a1.364,1.364,0,0,0-.364-1.138,2.01,2.01,0,0,0-1.17-.266,4.114,4.114,0,0,0-1.157.188,4.148,4.148,0,0,0-1.079.475l-.377-.624a4.968,4.968,0,0,1,1.229-.546,4.723,4.723,0,0,1,1.384-.221,2.738,2.738,0,0,1,1.742.455,2.074,2.074,0,0,1,.559,1.677V-.806q0,.247.136.28a1.88,1.88,0,0,0,.6-.059v.559a2.141,2.141,0,0,1-.351.1,2.068,2.068,0,0,1-.416.045q-.442,0-.572-.182a1.4,1.4,0,0,1-.156-.689,2.364,2.364,0,0,1-1.066.65A4.614,4.614,0,0,1,103.155.117Zm.039-.715a3.873,3.873,0,0,0,1.163-.195,2.021,2.021,0,0,0,.858-.526,1.1,1.1,0,0,0,.292-.839.73.73,0,0,0-.442-.6,2.223,2.223,0,0,0-1.04-.188A2.947,2.947,0,0,0,103-2.769a2.085,2.085,0,0,0-.8.5,1.03,1.03,0,0,0-.306.735.776.776,0,0,0,.364.709A1.741,1.741,0,0,0,103.194-.6Zm6.162.6V-6.227h.741l.039.975a1.857,1.857,0,0,1,.689-.806,1.905,1.905,0,0,1,1.092-.325,2.072,2.072,0,0,1,1.241.351,1.709,1.709,0,0,1,.657.975,2.184,2.184,0,0,1,.7-.949,1.942,1.942,0,0,1,1.235-.377,1.929,1.929,0,0,1,1.508.6,2.63,2.63,0,0,1,.546,1.813V0h-.793V-3.848a2.025,2.025,0,0,0-.377-1.391,1.322,1.322,0,0,0-1.014-.4,1.493,1.493,0,0,0-.864.253,1.7,1.7,0,0,0-.572.663,1.989,1.989,0,0,0-.2.891V0h-.793V-3.848a2,2,0,0,0-.383-1.391,1.343,1.343,0,0,0-1.021-.4,1.467,1.467,0,0,0-.864.26,1.747,1.747,0,0,0-.572.669,1.933,1.933,0,0,0-.2.865V0ZM122.8.143a2.69,2.69,0,0,1-1.482-.416,2.911,2.911,0,0,1-1.027-1.15,3.665,3.665,0,0,1-.377-1.7,3.665,3.665,0,0,1,.377-1.7,2.911,2.911,0,0,1,1.027-1.15,2.69,2.69,0,0,1,1.482-.416,2.713,2.713,0,0,1,1.495.416,2.911,2.911,0,0,1,1.027,1.15,3.665,3.665,0,0,1,.377,1.7,3.665,3.665,0,0,1-.377,1.7,2.911,2.911,0,0,1-1.027,1.15A2.713,2.713,0,0,1,122.8.143Zm0-.741a1.931,1.931,0,0,0,1.085-.312,2.129,2.129,0,0,0,.748-.877A3.035,3.035,0,0,0,124.9-3.12a3.035,3.035,0,0,0-.273-1.332,2.129,2.129,0,0,0-.748-.878,1.931,1.931,0,0,0-1.085-.312,1.9,1.9,0,0,0-1.5.682,2.712,2.712,0,0,0-.591,1.84,2.717,2.717,0,0,0,.591,1.833A1.893,1.893,0,0,0,122.8-.6Zm7.423.741a1.9,1.9,0,0,1-1.248-.351,1.585,1.585,0,0,1-.416-1.261V-5.5h-1.352v-.728h1.352V-8.515h.78v2.288h1.9V-5.5h-1.9v3.9a1.031,1.031,0,0,0,.247.8,1.15,1.15,0,0,0,.767.215,1.841,1.841,0,0,0,.468-.065,2.558,2.558,0,0,0,.416-.143v.767a3.048,3.048,0,0,1-.468.117A3.055,3.055,0,0,1,130.221.143Zm5.915,0a2.689,2.689,0,0,1-1.482-.416,2.911,2.911,0,0,1-1.027-1.15,3.664,3.664,0,0,1-.377-1.7,3.664,3.664,0,0,1,.377-1.7,2.911,2.911,0,0,1,1.027-1.15,2.689,2.689,0,0,1,1.482-.416,2.713,2.713,0,0,1,1.5.416,2.911,2.911,0,0,1,1.027,1.15,3.665,3.665,0,0,1,.377,1.7,3.665,3.665,0,0,1-.377,1.7,2.911,2.911,0,0,1-1.027,1.15A2.713,2.713,0,0,1,136.136.143Zm0-.741a1.931,1.931,0,0,0,1.086-.312,2.129,2.129,0,0,0,.747-.877,3.035,3.035,0,0,0,.273-1.332,3.035,3.035,0,0,0-.273-1.332,2.129,2.129,0,0,0-.747-.878,1.931,1.931,0,0,0-1.086-.312,1.9,1.9,0,0,0-1.5.682,2.712,2.712,0,0,0-.591,1.84,2.717,2.717,0,0,0,.591,1.833A1.893,1.893,0,0,0,136.136-.6Zm5.876.741a.7.7,0,0,1-.52-.215.7.7,0,0,1-.208-.5.712.712,0,0,1,.208-.513.7.7,0,0,1,.52-.215.679.679,0,0,1,.507.215.712.712,0,0,1,.208.513.7.7,0,0,1-.208.5A.679.679,0,0,1,142.012.143Z" transform="translate(143 880)" fill="#7c7c7c" opacity="0.996"/></g></svg>