<svg xmlns="http://www.w3.org/2000/svg" xmlns:xlink="http://www.w3.org/1999/xlink" width="177" height="2354" viewBox="0 0 177 2354">
  <defs>
    <clipPath id="clip-path">
      <rect id="長方形_87" data-name="長方形 87" width="2354" height="177" transform="translate(0 117)" fill="#fff"/>
    </clipPath>
  </defs>
  <g id="covermark_text_101010" transform="translate(294) rotate(90)" clip-path="url(#clip-path)">
    <path id="パス_26" data-name="パス 26" d="M114.07-46.92C112.54-21.42,94.18.17,65.79.17c-66.47,0-66.64-123.08,0-123.08a41.249,41.249,0,0,1,35.87,20.06c3.74,6.12-4.76,10.37-4.76,15.64a5.478,5.478,0,0,0,5.44,5.44,5.3,5.3,0,0,0,5.27-5.27c0-18.7-18.19-37.23-41.82-37.23-80.92,0-80.92,125.8,0,125.8,29.24,0,47.94-22.27,49.64-48.45ZM193.8,1.53c80.92,0,80.92-125.8.17-125.8C113.05-124.27,113.05,1.53,193.8,1.53Zm.17-1.36c-66.47-.17-66.64-123.08,0-123.08S260.61.17,193.97.17Zm87.04-112.71c-1.87-4.76.51-8.5,5.61-8.5h8.16v-1.36H251.26v1.36h7.99c5.1,0,9.52,3.74,11.39,8.5L315.01,0h10.37L321.3-10.37,349.52-71.4c9.01-19.38,5.95-55.59-11.22-55.59a5.335,5.335,0,0,0-5.44,5.27,5.37,5.37,0,0,0,5.44,5.44c18.7,0,15.98,31.62,10.71,43.01l-28.39,61.2ZM448.8-122.4H369.75v1.36h7.99c5.1,0,8.5,3.4,8.5,8.5V-9.86c0,5.1-3.4,8.5-8.5,8.5h-7.99V0H453.9l9.35-22.95-1.19-.51L455.94-9.69c-2.04,4.59-6.63,8.33-11.73,8.33H395.93V-72.59c0-3.91,5.1-6.97,9.86-6.97,10.03,0,16.66,14.11,36.89,14.11,7.14,0,11.22-5.27,11.22-9.01h-1.36c0,2.89-3.4,7.65-9.86,7.65-7.99,0-18.53-14.11-36.89-14.11a13.378,13.378,0,0,0-9.86,4.42v-44.54h43.18c5.1,0,9.69,3.74,11.73,8.33l4.25,9.69,1.19-.51ZM489.26-9.86c0,5.1-3.4,8.5-8.5,8.5h-7.99V0h42.84V-1.36h-8.16c-5.1,0-8.5-3.4-8.5-8.5V-112.54c0-5.1,3.4-8.5,8.5-8.5h12.07c23.97,0,33.32,16.15,33.32,32.3,0,36.72-45.22,26.18-45.22,37.4,0,4.93,8.33,2.38,13.09,2.38,6.63,0,13.94.68,23.29,22.61l6.97,16.83c2.89,6.8,7.65,11.05,13.43,11.05,6.63,0,13.6-6.29,14.62-20.4l-1.36-.17c-.85,10.71-4.59,15.13-8.33,15.13-4.08,0-6.46-2.72-8.16-6.63L553.52-28.9c-12.58-29.58-36.89-17.51-36.89-23.63,0-8.5,46.92-4.59,46.92-36.21,0-16.83-12.41-33.66-42.33-33.66H472.77v1.36h7.99c5.1,0,8.5,3.4,8.5,8.5Zm114.24,0c0,5.1-3.4,8.5-8.5,8.5h-8.16V0h34.51V-1.36h-7.99c-5.1,0-8.5-3.4-8.5-8.5v-103.7c0,.17.17.34.34.51l47.09,76.84-5.78,9.86c-22.78,39.44,45.9,36.72,19.04-6.8l-6.8-11.22,43.69-75.14V-9.86c0,5.1-3.4,8.5-8.5,8.5h-7.99V0h42.84V-1.36h-8.16c-5.1,0-8.5-3.4-8.5-8.5V-112.54c0-5.1,3.4-8.5,8.5-8.5h8.16v-1.36H702.44L657.9-45.73,610.64-122.4h-23.8v1.36H595c2.55,0,5.95,2.38,8.33,5.61Zm44.71-16.49,4.93-8.5,6.46,10.37C679.32,7.65,628.15,8.16,648.21-26.35ZM835.38-9.86c1.87,4.76.85,8.5-4.25,8.5h-7.99V0h43.52V-1.36H858.5c-5.1,0-10.88-3.74-12.75-8.5L801.55-122.4H791.18l4.25,11.05L782.68-78.37a16.52,16.52,0,0,0-1.36,6.63c0,14.79,23.63,18.02,23.63,23.97,0,1.02-.51,1.36-1.36,1.36-3.06,0-14.28-5.27-20.74-5.27-8.16,0-12.58,4.76-21.93,28.39L755.65-9.86c-1.87,4.76-7.65,8.5-12.75,8.5h-7.99V0h34.85V-1.36h-8.33c-3.57,0-5.1-1.87-5.1-4.59a11.6,11.6,0,0,1,.85-3.91l5.44-13.43c8.84-22.61,12.75-27.03,20.23-27.03,6.97,0,19.55,6.63,25.84,6.63,1.7,0,3.06-.51,3.4-2.04,2.38-7.82-29.58-10.2-29.58-25.84a13.719,13.719,0,0,1,1.19-5.44l12.58-32.13Zm52.19,0c0,5.1-3.4,8.5-8.5,8.5h-7.99V0h42.84V-1.36h-8.16c-5.1,0-8.5-3.4-8.5-8.5V-112.54c0-5.1,3.4-8.5,8.5-8.5h12.07c23.97,0,33.32,16.15,33.32,32.3,0,36.72-45.22,26.18-45.22,37.4,0,4.93,8.33,2.38,13.09,2.38,6.63,0,13.94.68,23.29,22.61l6.97,16.83c2.89,6.8,7.65,11.05,13.43,11.05,6.63,0,13.6-6.29,14.62-20.4l-1.36-.17c-.85,10.71-4.59,15.13-8.33,15.13-4.08,0-6.46-2.72-8.16-6.63L951.83-28.9c-12.58-29.58-36.89-17.51-36.89-23.63,0-8.5,46.92-4.59,46.92-36.21,0-16.83-12.41-33.66-42.33-33.66H871.08v1.36h7.99c5.1,0,8.5,3.4,8.5,8.5Zm112.54,0c0,5.1-3.4,8.5-8.5,8.5h-7.99V0h42.84V-1.36h-8.16c-5.1,0-8.5-3.4-8.5-8.5V-112.54c0-5.1,3.4-8.5,8.5-8.5h8.16v-1.36H983.62v1.36h7.99c5.1,0,8.5,3.4,8.5,8.5Zm55.42-103.7-40.46,38.59a6.045,6.045,0,0,0-1.87,3.74c0,4.93,8.16,1.53,16.15,15.13L1062.16,0h28.73V-1.36h-8.16c-6.8,0-11.05-1.7-14.96-8.5L1038.7-59.67c-7.65-12.92-24.14-7.31-24.14-11.56,0-1.19.85-2.04,1.87-3.06l41.14-39.27a26.709,26.709,0,0,1,18.87-7.48h7.99v-1.36h-34.85v1.36h7.14C1059.95-121.04,1060.63-118.32,1055.53-113.56Zm97.58-8.84v1.36h7.99c5.1,0,8.5,3.4,8.5,8.5V-9.86c0,5.1-3.4,8.5-8.5,8.5h-7.99V0h42.84V-1.36h-8.16c-5.1,0-8.5-3.4-8.5-8.5V-72.59c0-3.91,5.1-6.97,9.86-6.97,10.03,0,16.66,14.11,36.89,14.11,7.14,0,11.22-5.27,11.22-9.01h-1.36c0,2.89-3.4,7.65-9.86,7.65-7.99,0-18.53-14.11-36.89-14.11a13.378,13.378,0,0,0-9.86,4.42v-44.54h43.18c5.1,0,9.69,3.74,11.73,8.33l4.25,9.69,1.19-.51-7.48-18.87ZM1265.82-9.86c0,5.1-3.4,8.5-8.5,8.5h-7.99V0h84.15l9.35-22.95-1.19-.51-6.12,13.77c-2.04,4.59-6.63,8.33-11.73,8.33h-48.28V-112.54c0-5.1,3.4-8.5,8.5-8.5h8.16v-1.36h-42.84v1.36h7.99c5.1,0,8.5,3.4,8.5,8.5Zm178.5,0c1.87,4.76.85,8.5-4.25,8.5h-7.99V0h43.52V-1.36h-8.16c-5.1,0-10.88-3.74-12.75-8.5l-44.2-112.54h-10.37l4.25,11.05-12.75,32.98a16.52,16.52,0,0,0-1.36,6.63c0,14.79,23.63,18.02,23.63,23.97,0,1.02-.51,1.36-1.36,1.36-3.06,0-14.28-5.27-20.74-5.27-8.16,0-12.58,4.76-21.93,28.39l-5.27,13.43c-1.87,4.76-7.65,8.5-12.75,8.5h-7.99V0h34.85V-1.36h-8.33c-3.57,0-5.1-1.87-5.1-4.59a11.6,11.6,0,0,1,.85-3.91l5.44-13.43c8.84-22.61,12.75-27.03,20.23-27.03,6.97,0,19.55,6.63,25.84,6.63,1.7,0,3.06-.51,3.4-2.04,2.38-7.82-29.58-10.2-29.58-25.84a13.72,13.72,0,0,1,1.19-5.44l12.58-32.13Zm33.32-102.68c-1.87-4.76.51-8.5,5.61-8.5h8.16v-1.36h-43.52v1.36h7.99c5.1,0,9.52,3.74,11.39,8.5L1509.94,0h10.37l-4.25-10.88,23.97-55.76L1569.1,0h10.2l-4.42-10.37,25.5-61.03c8.16-19.55,5.95-55.59-11.39-55.59a5.3,5.3,0,0,0-5.27,5.27,5.335,5.335,0,0,0,5.27,5.44c18.19,0,15.64,31.45,10.88,42.84L1574.2-12.07l-28.9-66.64,10.2-23.8c12.75-29.58-44.37-30.6-26.69,10.03l10.54,24.14-23.97,55.59Zm76.5,10.03-9.52,21.93-9.52-21.93C1523.03-130.39,1564.85-127.5,1554.14-102.51Zm83.47,92.65c0,5.1-3.4,8.5-8.5,8.5h-7.99V0h84.15l9.35-22.95-1.19-.51-6.12,13.77c-2.04,4.59-6.63,8.33-11.73,8.33H1647.3V-112.54c0-5.1,3.4-8.5,8.5-8.5h8.16v-1.36h-42.84v1.36h7.99c5.1,0,8.5,3.4,8.5,8.5ZM1799.79-122.4h-79.05v1.36h7.99c5.1,0,8.5,3.4,8.5,8.5V-9.86c0,5.1-3.4,8.5-8.5,8.5h-7.99V0h84.15l9.35-22.95-1.19-.51-6.12,13.77c-2.04,4.59-6.63,8.33-11.73,8.33h-48.28V-72.59c0-3.91,5.1-6.97,9.86-6.97,10.03,0,16.66,14.11,36.89,14.11,7.14,0,11.22-5.27,11.22-9.01h-1.36c0,2.89-3.4,7.65-9.86,7.65-7.99,0-18.53-14.11-36.89-14.11a13.378,13.378,0,0,0-9.86,4.42v-44.54h43.18c5.1,0,9.69,3.74,11.73,8.33l4.25,9.69,1.19-.51Zm71.74-1.87c-62.05,0-58.99,71.23.51,55.76,46.24-11.9,53.55,68.68,0,68.68-21.08,0-33.66-9.86-38.93-21.76-4.42-10.2,6.97-10.2,6.97-18.87a5.3,5.3,0,0,0-5.27-5.27c-5.61,0-6.29,6.46-6.29,10.54,0,17.17,13.94,36.72,43.52,36.72,64.94,0,63.24-87.04,0-71.4-48.28,12.07-45.05-53.04-.51-53.04,15.98,0,25.16,6.29,29.75,14.28,4.08,6.97-5.27,8.84-5.27,15.13a5.37,5.37,0,0,0,5.44,5.44,5.335,5.335,0,0,0,5.27-5.44C1906.72-106.93,1898.22-124.27,1871.53-124.27Zm110.67,0c-62.05,0-58.99,71.23.51,55.76,46.24-11.9,53.55,68.68,0,68.68-21.08,0-33.66-9.86-38.93-21.76-4.42-10.2,6.97-10.2,6.97-18.87a5.3,5.3,0,0,0-5.27-5.27c-5.61,0-6.29,6.46-6.29,10.54,0,17.17,13.94,36.72,43.52,36.72,64.94,0,63.24-87.04,0-71.4-48.28,12.07-45.05-53.04-.51-53.04,15.98,0,25.16,6.29,29.75,14.28,4.08,6.97-5.27,8.84-5.27,15.13a5.37,5.37,0,0,0,5.44,5.44,5.335,5.335,0,0,0,5.27-5.44C2017.39-106.93,2008.89-124.27,1982.2-124.27Zm111.69,1.87v1.36h7.99c5.1,0,8.5,3.4,8.5,8.5V-9.86c0,5.1-3.4,8.5-8.5,8.5h-7.99V0h42.84V-1.36h-8.16c-5.1,0-8.5-3.4-8.5-8.5V-72.59c0-3.91,5.1-6.97,9.86-6.97,10.03,0,16.66,14.11,36.89,14.11,7.14,0,11.22-5.27,11.22-9.01h-1.36c0,2.89-3.4,7.65-9.86,7.65-7.99,0-18.53-14.11-36.89-14.11a13.378,13.378,0,0,0-9.86,4.42v-44.54h43.18c5.1,0,9.69,3.74,11.73,8.33l4.25,9.69,1.19-.51-7.48-18.87ZM2210.85-9.86c0,5.1-3.4,8.5-8.5,8.5h-7.99V0h42.84V-1.36h-8.16c-5.1,0-8.5-3.4-8.5-8.5V-112.54c0-5.1,3.4-8.5,8.5-8.5h8.16v-1.36h-42.84v1.36h7.99c5.1,0,8.5,3.4,8.5,8.5Zm85.85,0c0,5.1-3.4,8.5-8.5,8.5h-7.99V0h42.84V-1.36h-8.16c-5.1,0-8.5-3.4-8.5-8.5V-121.04h32.81c5.1,0,9.69,3.74,11.73,8.33l4.25,9.69,1.19-.51-7.48-18.87h-94.86l-7.48,18.87,1.19.51,4.25-9.69c2.04-4.59,6.63-8.33,11.73-8.33h32.98Z" transform="translate(-4 244)" fill="#101010"/>
  </g>
</svg>
