<svg xmlns="http://www.w3.org/2000/svg" xmlns:xlink="http://www.w3.org/1999/xlink" width="832" height="201" viewBox="0 0 832 201"><defs><clipPath id="a"><rect width="832" height="201" transform="translate(261 1350)" fill="#fff"/></clipPath></defs><g transform="translate(-261 -1350)" clip-path="url(#a)"><path d="M29.92-112.54c-1.87-4.76.51-8.5,5.61-8.5h8.16v-1.36H.17v1.36H8.16c5.1,0,9.52,3.74,11.39,8.5L62.22,0H72.59L68.34-10.88,92.31-66.64,121.38,0h10.2l-4.42-10.37,25.5-61.03c8.16-19.55,5.95-55.59-11.39-55.59a5.3,5.3,0,0,0-5.27,5.27,5.335,5.335,0,0,0,5.27,5.44c18.19,0,15.64,31.45,10.88,42.84L126.48-12.07,97.58-78.71l10.2-23.8c12.75-29.58-44.37-30.6-26.69,10.03L91.63-68.34,67.66-12.75Zm76.5,10.03L96.9-80.58l-9.52-21.93C75.31-130.39,117.13-127.5,106.42-102.51ZM208.25-86.02c-27.2,0-41.48,21.76-41.48,43.52S181.05,1.02,208.25,1.02c17.85,0,35.02-13.6,35.02-33.83h-1.19A32.072,32.072,0,0,1,210.46-.85c-14.62,0-24.65-8.84-30.09-20.74h.68c0-23.12,56.1-18.87,56.1-44.54C237.15-74.8,228.14-86.02,208.25-86.02ZM179.86-22.95a51.511,51.511,0,0,1-3.74-19.72c0-20.91,10.2-41.99,34.34-41.99,13.26,0,18.19,10.03,18.19,18.02C228.65-39.27,181.73-45.05,179.86-22.95ZM306-86.02c-14.96,0-29.24,9.69-33.49,24.82v-63.07l-23.46,6.29.34,1.19,6.46-1.7c4.93-1.36,8.16,1.19,8.16,6.29V-9.69c0,5.1-3.4,8.5-8.5,8.5h-7.99V0h24.99V-24.14c4.08,15.3,18.36,25.16,33.32,25.16C360.4,1.02,360.4-86.02,306-86.02ZM303.79-.85c-16.66,0-31.28-13.94-31.28-31.96V-52.19c0-18.02,14.62-31.96,31.28-31.96C348.5-84.15,348.5-.85,303.79-.85ZM445.74-124.27c-62.05,0-58.99,71.23.51,55.76,46.24-11.9,53.55,68.68,0,68.68-21.08,0-33.66-9.86-38.93-21.76-4.42-10.2,6.97-10.2,6.97-18.87a5.3,5.3,0,0,0-5.27-5.27c-5.61,0-6.29,6.46-6.29,10.54,0,17.17,13.94,36.72,43.52,36.72,64.94,0,63.24-87.04,0-71.4-48.28,12.07-45.05-53.04-.51-53.04,15.98,0,25.16,6.29,29.75,14.28,4.08,6.97-5.27,8.84-5.27,15.13a5.37,5.37,0,0,0,5.44,5.44,5.335,5.335,0,0,0,5.27-5.44C480.93-106.93,472.43-124.27,445.74-124.27Zm87.21,17.51a4.9,4.9,0,0,0-4.93-4.76,4.865,4.865,0,0,0-4.76,4.76,4.9,4.9,0,0,0,4.76,4.93A4.934,4.934,0,0,0,532.95-106.76ZM523.77-9.69c0,5.1-3.4,8.5-8.5,8.5h-7.99V0h41.65V-1.19h-8.16c-5.1,0-8.5-3.4-8.5-8.5V-86.02l-23.46,6.29.34,1.19,6.46-1.87c4.93-1.19,8.16,1.19,8.16,6.29Zm44.88-60.35v57.97c0,18.36,31.79,18.53,37.23-6.8l-1.19-.17c-5.1,20.06-27.54,23.29-27.54,6.97V-83.81h23.46V-85H577.15v-21.93h-1.7c0,18.19-9.69,21.93-16.49,21.93v1.19h9.69Zm90.1-15.98c-27.2,0-41.48,21.76-41.48,43.52S631.55,1.02,658.75,1.02c17.85,0,35.02-13.6,35.02-33.83h-1.19A32.072,32.072,0,0,1,660.96-.85c-14.62,0-24.65-8.84-30.09-20.74h.68c0-23.12,56.1-18.87,56.1-44.54C687.65-74.8,678.64-86.02,658.75-86.02ZM630.36-22.95a51.512,51.512,0,0,1-3.74-19.72c0-20.91,10.2-41.99,34.34-41.99,13.26,0,18.19,10.03,18.19,18.02C679.15-39.27,632.23-45.05,630.36-22.95Z" transform="translate(314 1514)" fill="#101010"/></g></svg>